<svg width="500" height="500" viewBox="0 0 500 500" fill="none" xmlns="http://www.w3.org/2000/svg">
<g clip-path="url(#clip0_230_3145)">
<g opacity="0.4">
<path d="M27.9979 240.16C27.1239 248.011 27.5239 256.054 29.6859 263.549C31.8259 271.006 35.7899 277.957 41.4269 282.643C42.8229 283.815 44.2989 284.855 45.8349 285.745C47.3849 286.617 49.0039 287.316 50.6469 287.867C53.9319 288.986 57.3669 289.377 60.7439 289.216C67.5259 288.85 74.0569 286.285 79.9949 282.593C80.3529 282.361 80.7659 282.121 81.0769 281.899L81.9329 281.262C82.4919 280.799 83.0479 280.363 83.5879 279.853C84.6759 278.88 85.7169 277.784 86.7069 276.572C88.6899 274.184 90.5549 271.434 92.2229 268.443C95.6189 262.479 98.5079 255.727 101.223 248.754C106.623 234.734 111.37 219.779 116.703 204.651C118.033 200.863 119.42 197.066 120.868 193.256C122.281 189.434 123.811 185.616 125.397 181.778C128.605 174.097 132.082 166.405 136.812 158.614C138.011 156.663 139.3 154.703 140.785 152.733C141.528 151.751 142.34 150.751 143.197 149.785C144.06 148.839 144.952 147.933 145.873 147.075C149.566 143.637 153.654 141 157.74 138.923C165.924 134.734 174.08 132.48 181.938 130.148C189.819 127.908 197.511 125.745 204.895 122.982C212.27 120.231 219.334 116.885 225.727 112.668C232.136 108.485 237.778 103.325 242.342 97.4068C246.889 91.4608 250.481 84.8258 252.088 78.1338C252.892 74.8008 253.241 71.4918 253.054 68.3828C252.846 65.2748 252.122 62.3818 250.907 59.9008C248.509 54.9018 244.365 51.5718 239.445 49.9708C236.992 49.1418 234.328 48.7648 231.579 48.7238C228.824 48.7168 225.972 49.0668 223.103 49.7668C222.386 49.9418 221.668 50.1508 220.951 50.3628L218.39 51.1318C216.693 51.6698 215.011 52.2298 213.352 52.8478C210.032 54.0788 206.775 55.4468 203.537 57.0118C197.063 60.1068 190.603 64.0208 183.432 68.1838C176.301 72.3508 168.366 76.5728 159.926 79.9618C151.465 83.2898 142.641 85.8408 133.842 87.4518C132.741 87.6828 131.643 87.8308 130.543 88.0178L127.586 88.4938C125.952 88.7678 124.298 89.0918 122.644 89.4488C119.339 90.1808 116.048 91.0828 112.831 92.1348C99.9389 96.3808 88.3259 103.106 79.4879 112.592C75.0299 117.306 71.1089 122.635 67.7809 128.608C66.1029 131.585 64.5639 134.72 63.2229 138.007C61.8299 141.279 60.6519 144.703 59.5689 148.227C58.5169 151.756 57.5989 155.393 56.8519 159.115C56.4859 160.863 56.1049 163.154 55.7119 165.219C55.2809 167.324 54.8479 169.417 54.3449 171.494C52.3429 179.801 49.7919 187.868 46.7269 195.62C43.7229 203.393 40.2249 210.846 36.7209 218.172C34.9599 221.832 33.2019 225.467 31.5879 229.119C30.0059 232.76 28.4889 236.491 27.9979 240.16ZM24.8979 239.826C25.1269 237.641 25.6779 235.599 26.2849 233.614C26.8799 231.623 27.5939 229.703 28.2869 227.79C29.6869 223.967 31.1479 220.212 32.4359 216.411C33.7479 212.621 34.9199 208.8 35.9219 204.953C36.9239 201.106 37.6869 197.212 38.3269 193.327C39.5299 185.535 39.9449 177.702 39.5889 169.975C39.5209 168.045 39.3739 166.118 39.2259 164.203C39.0449 162.244 38.8389 160.508 38.6619 158.232C38.3049 153.904 38.1419 149.508 38.2729 145.064C38.5029 136.18 39.8469 127.066 42.7259 118.145C45.5899 109.242 50.0149 100.567 55.8989 92.9108C61.7769 85.2508 68.9619 78.5948 76.8229 73.1678C84.6969 67.7338 93.2369 63.5278 102.058 60.4568C106.47 58.9118 110.958 57.6558 115.528 56.6718C117.811 56.1678 120.121 55.7578 122.468 55.4098L128.155 54.5798C135.238 53.4458 142.078 51.9288 148.741 49.6708C155.446 47.5088 161.996 44.5608 169.079 41.1418C176.134 37.7398 183.791 33.8168 192.145 30.5628C196.309 28.9388 200.605 27.4658 204.971 26.2718C207.153 25.6688 209.351 25.1398 211.55 24.6498L214.859 23.9738C216.11 23.7518 217.364 23.5478 218.635 23.3898C223.709 22.7478 228.981 22.7128 234.245 23.5528C239.504 24.3578 244.748 26.0538 249.577 28.6928C254.396 31.3408 258.761 34.9728 262.169 39.3398C265.601 43.6848 268.044 48.7428 269.312 53.9258C270.617 59.1088 270.776 64.3678 270.136 69.2988C269.517 74.2428 268.106 78.8818 266.233 83.1458C262.396 91.6618 257.023 98.7628 251.032 104.972C248.04 108.109 244.784 110.961 241.429 113.631C238.04 116.262 234.517 118.676 230.893 120.865C216.363 129.645 200.443 134.666 185.839 141.023C178.565 144.158 171.554 147.71 166.048 152.099C163.319 154.312 161.019 156.712 159.292 159.249C158.86 159.884 158.464 160.528 158.095 161.177C157.736 161.818 157.395 162.47 157.048 163.183C156.36 164.607 155.703 166.183 155.084 167.826C153.842 171.122 152.756 174.711 151.745 178.377C150.684 182.035 149.757 185.809 148.769 189.609L145.854 201.135C144.878 205.012 143.875 208.911 142.797 212.815C138.475 228.426 133.457 244.273 125.755 259.736C121.852 267.443 117.297 275.09 111.259 282.217C109.724 283.983 108.132 285.723 106.39 287.397C104.675 289.078 102.832 290.702 100.82 292.194C98.8359 293.701 96.6959 295.101 94.4069 296.326C93.2869 296.96 92.0729 297.495 90.8779 298.019L89.0339 298.741C88.4399 298.96 87.9229 299.112 87.3649 299.298C82.9669 300.698 78.3979 301.729 73.7129 302.164C69.0379 302.608 64.2519 302.446 59.6069 301.533C54.9579 300.655 50.4869 298.921 46.4989 296.564C44.5069 295.377 42.6379 294.024 40.9329 292.519C39.2089 291.041 37.6349 289.425 36.2209 287.71C30.5559 280.81 27.3879 272.65 25.7729 264.49C24.1629 256.292 24.0749 247.984 24.8979 239.826Z" fill="#EBEBEB"/>
<path d="M336.036 440.151C326.895 441.453 318.04 444.346 309.538 448.004C301.01 451.636 292.804 456.017 284.528 460.482C280.37 462.679 276.219 464.966 271.919 467.099C267.628 469.27 263.203 471.331 258.477 473.076C253.75 474.803 248.708 476.258 243.128 476.842C237.59 477.419 231.358 477.042 225.281 474.825C223.773 474.284 222.319 473.558 220.833 472.888C219.421 472.111 218.028 471.268 216.64 470.408C215.352 469.468 214.061 468.491 212.808 467.48C211.654 466.419 210.504 465.337 209.36 464.237C205.185 459.994 201.639 454.991 198.836 449.668C196.02 444.343 194.062 438.702 192.703 433.147C191.368 427.577 190.622 422.076 190.247 416.732C189.51 406.039 190.094 395.944 190.804 386.34L191.943 372.232C192.133 369.927 192.255 367.657 192.408 365.395L192.608 362.033L192.737 358.708C192.834 354.301 192.887 349.985 192.551 345.789C192.299 341.59 191.682 337.473 190.781 333.683C189.834 329.759 188.316 325.665 186.502 321.55C184.689 317.431 182.606 313.272 180.361 309.106C175.861 300.75 170.756 292.413 165.781 283.8L162.083 277.279C160.884 275.058 159.701 272.835 158.573 270.547C156.266 266.009 154.212 261.26 152.578 256.248C150.974 251.241 149.847 245.883 149.894 240.366C149.911 234.863 151.228 229.314 153.623 224.492C154.789 222.047 156.283 219.864 157.836 217.755L160.309 214.756C161.151 213.802 162.027 212.947 162.888 212.039C166.417 208.532 170.232 205.276 174.375 202.444C178.559 199.686 182.978 197.235 187.646 195.319C188.821 194.867 189.971 194.327 191.166 193.926L194.756 192.706C197.184 192.021 199.624 191.325 202.104 190.824C212.015 188.71 222.275 188.255 232.382 189.142C237.438 189.561 242.482 190.248 247.451 191.252C252.447 192.182 257.347 193.48 262.217 194.896C264.624 195.662 267.074 196.362 269.449 197.222L273.04 198.468L276.587 199.815C281.307 201.651 285.944 203.663 290.512 205.83C292.787 206.926 295.04 208.061 297.302 209.19C299.527 210.371 301.757 211.56 303.959 212.788C306.138 214.047 308.359 215.257 310.509 216.565C312.645 217.894 314.826 219.17 316.927 220.549L329.064 228.4C331.032 229.675 333.035 230.88 335.016 232.123L337.995 233.974L341.003 235.762C357.012 245.412 373.467 253.703 390.406 261.285C398.932 265.066 407.536 268.693 416.645 272.81C421.193 274.843 425.856 277.139 430.68 279.839C435.461 282.576 440.439 285.767 445.147 289.792C449.866 293.779 454.241 298.556 457.801 303.66C461.43 308.753 464.16 314.108 466.429 319.351C467.625 321.989 468.535 324.589 469.5 327.206C469.955 328.508 470.345 329.796 470.768 331.091C471.183 332.383 471.607 333.658 471.953 335.053L473.03 339.15L473.551 341.199L473.951 343.321C474.469 346.159 475.025 348.951 475.225 351.909C475.363 353.369 475.5 354.823 475.599 356.282L475.614 360.75L475.598 362.975C475.579 363.717 475.477 364.476 475.416 365.224L474.964 369.709C474.739 371.199 474.391 372.688 474.095 374.165L473.622 376.376C473.438 377.108 473.19 377.829 472.974 378.553C472.521 379.997 472.076 381.438 471.589 382.858C471.013 384.249 470.402 385.621 469.788 386.983C467.191 392.341 463.998 397.343 460.123 401.444L458.715 403.022C458.225 403.52 457.715 403.988 457.215 404.469C456.207 405.418 455.217 406.386 454.186 407.286C452.045 408.954 449.985 410.73 447.752 412.139C443.405 415.2 438.788 417.506 434.22 419.689C429.588 421.709 424.957 423.546 420.26 424.988C410.892 427.967 401.491 430.098 392.106 431.84C389.755 432.251 387.423 432.732 385.069 433.081C382.722 433.461 380.395 433.91 378.047 434.246C375.708 434.621 373.362 434.954 371.025 435.301L364.015 436.319L336.036 440.151ZM335.52 437.092C344.786 435.747 353.993 434.061 363.063 431.895L366.461 431.077L369.836 430.179C372.093 429.609 374.315 428.919 376.54 428.252C380.997 426.947 385.379 425.427 389.704 423.812C398.346 420.572 406.683 416.666 414.376 412.056C418.257 409.805 421.87 407.242 425.34 404.637C428.701 401.915 431.955 399.144 434.68 396.078C436.151 394.63 437.304 392.98 438.583 391.461L440.246 389.046C440.519 388.646 440.808 388.257 441.067 387.855L441.763 386.608C443.736 383.355 445.045 379.945 445.993 376.534C446.192 375.665 446.393 374.807 446.629 373.968L447.017 371.346C447.077 370.91 447.172 370.489 447.21 370.048L447.263 368.707C447.291 367.813 447.382 366.946 447.385 366.051L447.29 363.336C447.268 362.883 447.293 362.445 447.24 361.983L447.068 360.595L446.771 357.836L446.218 355.016C445.534 351.267 444.356 347.416 443.038 343.555C442.757 342.605 442.347 341.596 441.957 340.595C441.564 339.602 441.194 338.582 440.787 337.611C439.934 335.719 439.15 333.759 438.236 332.01C436.465 328.418 434.551 325.153 432.419 322.398C430.278 319.624 427.975 317.25 425.256 315.05C419.87 310.671 412.459 306.838 404.106 302.902C399.961 300.925 395.643 298.958 391.244 296.928C386.857 294.923 382.434 292.742 378.005 290.578C360.245 281.804 342.885 271.601 326.484 260.355L323.395 258.26L320.348 256.109C318.324 254.667 316.275 253.26 314.274 251.791L302.602 243.17C298.875 240.44 295.102 237.798 291.311 235.19L285.569 231.386C283.638 230.16 281.709 228.918 279.763 227.716C275.848 225.372 271.938 222.991 267.926 220.872L264.93 219.24L261.904 217.696C259.891 216.629 257.837 215.73 255.794 214.745C247.579 211.049 239.147 207.875 230.523 205.867C226.21 204.818 221.864 204.185 217.505 203.752C213.138 203.291 208.784 203.345 204.469 203.709C195.821 204.398 187.458 207.034 179.954 211.337C176.235 213.543 172.736 216.158 169.545 219.155C168.769 219.919 167.938 220.667 167.202 221.442L165.117 223.799C163.877 225.46 162.676 227.148 161.789 228.974C159.927 232.582 158.992 236.561 159.06 240.689C159.113 244.816 160.117 249.068 161.723 253.212C163.312 257.372 165.527 261.406 167.92 265.382C170.378 269.327 173.084 273.199 175.967 277.007C181.704 284.638 187.984 292.084 194.133 300.015C197.196 304.002 200.215 308.137 203.073 312.555C205.927 316.971 208.643 321.681 210.891 326.941C215.426 337.697 217.177 348.569 217.934 359.033C219.298 379.91 216.631 399.123 217.017 416.344C217.196 424.935 218.139 432.861 220.638 439.88C221.873 443.406 223.581 446.708 225.689 449.88C227.665 452.791 229.827 455.146 232.529 456.853C235.213 458.572 238.548 459.759 242.407 460.228C246.253 460.715 250.508 460.54 254.836 459.955C259.174 459.373 263.606 458.413 268.05 457.282C272.473 456.076 276.932 454.746 281.353 453.262C290.235 450.365 299.053 447.055 308.012 444.108C316.958 441.136 326.08 438.517 335.52 437.092Z" fill="#EBEBEB"/>
<path d="M293.154 88.9946C296.336 88.1776 299.331 87.6876 302.251 87.3486C303.713 87.1566 305.13 87.0476 306.562 86.9226C307.967 86.8416 309.394 86.7626 310.775 86.7346C313.56 86.6256 316.271 86.7006 318.976 86.7896C329.724 87.2166 339.992 88.8616 350.118 90.4276L353.708 90.9676L355.301 91.2036L356.928 91.3266C358.015 91.4336 359.149 91.4006 360.272 91.4266C361.412 91.3796 362.551 91.3336 363.718 91.2426C364.882 91.1416 366.041 91.0316 367.227 90.8456C368.397 90.6756 369.584 90.4886 370.774 90.2556C373.138 89.7736 375.557 89.2596 377.939 88.5926C387.582 86.0476 397.112 82.2766 407.744 79.8426C413.09 78.7196 418.828 77.8926 424.92 78.5426C427.974 78.7866 431.022 79.5676 434.022 80.5446C435.491 81.0956 436.992 81.6446 438.388 82.3566C439.101 82.7066 439.829 83.0406 440.517 83.4116L442.543 84.6056C445.246 86.2306 447.679 88.1376 449.995 90.1446C451.175 91.1626 452.295 92.4026 453.442 93.5666C454.557 94.7646 455.486 96.0566 456.509 97.3346C457.499 98.6136 458.292 99.9576 459.168 101.314C459.616 101.988 459.968 102.677 460.33 103.362L461.428 105.446L461.964 106.498L462.415 107.561L463.302 109.704C463.947 111.127 464.385 112.561 464.853 114.018C466.689 119.804 467.671 125.683 467.992 131.492C468.267 137.297 467.93 143.046 467.051 148.658C466.159 154.264 464.618 159.717 462.634 164.973C462.122 166.282 461.584 167.579 461.041 168.866C460.476 170.151 459.833 171.41 459.224 172.667C458.628 173.93 457.955 175.167 457.261 176.379C456.571 177.6 455.9 178.814 455.13 179.999C452.206 184.746 448.793 189.203 445.179 193.369C441.538 197.523 437.658 201.401 433.48 204.848C429.329 208.307 424.981 211.429 420.356 214.001C415.728 216.563 410.807 218.536 405.657 219.65C400.461 220.76 394.935 220.627 389.678 219.279C384.418 217.954 379.43 215.623 374.712 212.921C365.289 207.435 356.636 200.62 348.673 193.452C344.679 189.85 340.928 186.1 337.364 182.255C336.865 181.678 336.582 181.519 336.256 181.221L335.322 180.41C334.603 179.928 334.052 179.36 333.302 178.913L332.28 178.191C331.905 177.967 331.524 177.757 331.174 177.513C330.488 177.03 329.625 176.637 328.901 176.168C325.711 174.406 322.083 172.69 317.907 171.028L311.329 168.438L307.807 167.059L304.131 165.539C301.642 164.533 299.024 163.276 296.361 161.958C293.68 160.536 290.908 158.993 288.124 157.042C285.322 155.043 282.508 152.837 279.886 150.001C277.283 147.213 274.852 144.004 273.012 140.446L272.296 139.128L271.687 137.77C271.295 136.863 270.88 135.953 270.527 135.031C269.927 133.202 269.252 131.323 268.909 129.496L268.331 126.735L267.983 124.052C267.719 122.228 267.703 120.531 267.641 118.796C267.621 118.336 267.609 117.985 267.605 117.452C267.614 116.748 267.649 116.055 267.694 115.359C267.739 113.995 268.003 112.503 268.324 111.044C268.401 110.692 268.483 110.327 268.579 109.967L268.925 108.866C269.17 108.138 269.431 107.426 269.702 106.71C270.319 105.328 271.038 103.95 271.833 102.711C272.247 102.107 272.665 101.513 273.101 100.935C273.322 100.639 273.542 100.343 273.764 100.08L274.451 99.3156C274.906 98.8186 275.379 98.3376 275.861 97.8526C276.333 97.3716 276.798 97.0156 277.283 96.5956C277.756 96.2026 278.248 95.8026 278.732 95.4396L280.144 94.4766C280.618 94.1726 281.109 93.8286 281.568 93.5756L282.936 92.8176C286.614 90.8966 289.976 89.8216 293.154 88.9946Z" fill="#EBEBEB"/>
<path d="M146.71 354.004C147.315 357.52 147.513 360.862 147.42 364.087C147.327 370.549 145.871 376.464 144.276 382.228C142.658 388.003 140.69 393.615 138.233 399.03C135.73 404.421 132.679 409.591 128.883 414.33C125.076 419.057 120.698 423.493 115.47 427.289C110.219 431.015 103.698 433.751 96.5486 434.822C92.9856 435.346 89.2716 435.451 85.6506 435.043C82.0416 434.612 78.5476 433.693 75.4976 432.307C72.4236 430.945 69.8036 429.21 67.5336 427.37C65.2516 425.519 63.2836 423.563 61.3746 421.595C60.3736 420.5 59.4766 419.324 58.6846 418.055C57.9396 416.762 57.3226 415.4 56.7866 413.98C55.7966 411.139 55.1686 408.112 54.7606 405.026C53.9456 398.855 53.7706 392.253 54.5506 385.931C55.3306 379.608 57.2866 373.717 60.3606 368.687C63.4346 363.657 67.4636 359.384 72.2136 355.972C76.9406 352.525 82.4946 350.057 87.9326 347.81C93.4516 345.621 98.7956 343.56 103.873 341.161C109.043 338.844 113.863 336.096 120.046 334.175C121.606 333.709 123.26 333.278 125.111 333.08C126.939 332.847 128.953 332.801 131.142 333.173C133.494 333.569 136.312 334.884 138.384 336.701C138.885 337.155 139.42 337.644 139.851 338.133C140.282 338.622 140.713 339.123 141.12 339.647C141.83 340.637 142.54 341.708 143.041 342.698C143.623 343.746 144.007 344.677 144.438 345.702C144.787 346.634 145.183 347.658 145.428 348.555L145.836 349.964L146.174 351.326C146.396 352.246 146.547 353.107 146.71 354.004Z" fill="#EBEBEB"/>
</g>
<path d="M169.243 230.369C169.243 237.255 163.69 242.585 156.803 242.585H154.582V259.468C154.582 266.354 149.251 271.684 142.367 271.684C135.48 271.684 130.149 266.353 130.149 259.468V242.585H60.6239H60.4019H60.1799C57.5149 242.585 54.8489 241.919 52.6269 239.92C47.0739 235.7 46.4079 228.149 50.6289 222.816L132.815 120.638C133.037 120.638 133.037 120.416 133.26 120.195C133.482 119.973 133.705 119.75 133.927 119.306C134.591 119.084 134.813 118.863 135.036 118.64C135.258 118.418 135.703 118.195 135.925 117.973C136.37 117.751 136.592 117.528 137.256 117.528C137.478 117.085 137.701 116.862 138.145 116.862C138.367 116.64 138.812 116.64 139.479 116.417C139.701 116.417 140.143 116.417 140.366 116.195C140.811 116.195 141.478 116.195 141.922 116.195C141.922 116.195 142.144 116.195 142.367 116.195C142.59 116.195 142.59 116.195 142.809 116.195C143.254 116.195 143.921 116.195 144.143 116.195C144.588 116.417 144.81 116.417 145.255 116.417C145.475 116.64 146.142 116.64 146.586 116.862C146.808 116.862 147.253 117.084 147.475 117.084C147.92 117.527 148.362 117.75 148.584 117.972C149.029 118.194 149.251 118.417 149.696 118.639C149.696 118.639 149.918 118.639 149.918 118.862C150.14 118.862 150.585 119.083 150.585 119.305C151.03 119.75 151.249 119.972 151.472 120.194C151.694 120.415 151.917 120.86 152.139 121.082C152.361 121.305 152.584 121.527 153.028 122.192C153.028 122.415 153.251 122.859 153.473 123.082C153.695 123.525 153.695 123.748 153.918 124.415C153.918 124.636 154.138 125.081 154.138 125.303C154.36 125.748 154.36 125.969 154.36 126.636C154.36 127.081 154.582 127.303 154.582 127.746C154.582 127.968 154.582 128.191 154.582 128.413V218.152H156.803C163.69 218.153 169.243 223.706 169.243 230.369ZM130.15 163.287L85.9468 218.153H130.15V163.287Z" fill="#161C2D"/>
<path d="M452.105 230.369C452.105 237.255 446.552 242.585 439.665 242.585H437.442V259.468C437.442 266.354 432.111 271.684 425.23 271.684C418.343 271.684 413.012 266.353 413.012 259.468V242.585H343.485H343.263H343.04C340.372 242.585 337.709 241.919 335.486 239.92C329.933 235.7 329.266 228.149 333.49 222.816L415.674 120.638C415.896 120.638 415.896 120.416 416.119 120.195C416.341 119.973 416.564 119.75 416.786 119.306C417.453 119.084 417.675 118.863 417.898 118.64C418.12 118.418 418.565 118.195 418.787 117.973C419.231 117.751 419.454 117.528 420.115 117.528C420.337 117.085 420.56 116.862 421.004 116.862C421.227 116.64 421.671 116.64 422.338 116.417C422.56 116.417 423.005 116.417 423.227 116.195C423.672 116.195 424.339 116.195 424.783 116.195C424.783 116.195 425.006 116.195 425.228 116.195C425.45 116.195 425.45 116.195 425.667 116.195C426.112 116.195 426.779 116.195 427.001 116.195C427.446 116.417 427.668 116.417 428.113 116.417C428.335 116.64 429.003 116.64 429.447 116.862C429.669 116.862 430.114 117.084 430.336 117.084C430.78 117.527 431.22 117.75 431.442 117.972C431.887 118.194 432.109 118.417 432.553 118.639C432.553 118.639 432.776 118.639 432.776 118.862C432.998 118.862 433.443 119.083 433.443 119.305C433.888 119.75 434.11 119.972 434.332 120.194C434.554 120.415 434.777 120.86 434.999 121.082C435.222 121.305 435.444 121.527 435.888 122.192C435.888 122.415 436.11 122.859 436.333 123.082C436.555 123.525 436.555 123.748 436.778 124.415C436.778 124.636 436.995 125.081 436.995 125.303C437.217 125.748 437.217 125.969 437.217 126.636C437.217 127.081 437.439 127.303 437.439 127.746C437.439 127.968 437.439 128.191 437.439 128.413V218.152H439.662C446.552 218.153 452.105 223.706 452.105 230.369ZM413.012 163.287L368.804 218.153H413.012V163.287Z" fill="#161C2D"/>
<path d="M190.808 96.6693V87.7383C190.808 87.2843 191.171 86.9062 191.641 86.9062C192.11 86.9062 192.489 87.2843 192.489 87.7383V95.8213H196.591C197.03 95.8213 197.424 96.1993 197.424 96.6693C197.424 97.1233 197.03 97.5023 196.591 97.5023H191.687C191.657 97.5023 191.657 97.5023 191.657 97.5023C191.642 97.5023 191.642 97.5023 191.642 97.5023C191.171 97.5023 190.808 97.1233 190.808 96.6693Z" fill="#263238"/>
<path d="M207.081 88.223C208.019 89.222 208.61 90.554 208.61 92.052C208.61 93.551 208.02 94.898 207.081 95.882C206.188 96.866 204.856 97.502 203.463 97.502C202.01 97.502 200.678 96.866 199.755 95.882C198.816 94.898 198.256 93.551 198.256 92.052C198.256 90.554 198.816 89.222 199.755 88.223C200.678 87.224 202.01 86.603 203.463 86.603C204.855 86.603 206.187 87.224 207.081 88.223ZM206.884 92.052C206.884 91.023 206.475 90.069 205.855 89.403C205.219 88.722 204.372 88.328 203.463 88.328C202.494 88.328 201.647 88.722 201.011 89.403C200.375 90.069 199.982 91.023 199.982 92.052C199.982 93.081 200.376 94.035 201.011 94.686C201.647 95.367 202.494 95.776 203.463 95.776C204.371 95.776 205.219 95.367 205.855 94.686C206.475 94.035 206.884 93.081 206.884 92.052Z" fill="#263238"/>
<path d="M211.185 94.868C211.457 94.535 211.957 94.49 212.29 94.762C212.956 95.307 214.106 95.943 215.181 95.927C215.938 95.927 216.619 95.7 217.073 95.367C217.527 95.034 217.724 94.656 217.724 94.277C217.724 94.08 217.679 93.944 217.588 93.793C217.497 93.642 217.361 93.49 217.134 93.339C216.695 93.051 215.953 92.794 215.06 92.628H215.03C214.319 92.492 213.653 92.31 213.077 92.038C212.501 91.766 212.002 91.387 211.669 90.857C211.442 90.494 211.321 90.07 211.321 89.616C211.321 88.708 211.836 87.921 212.532 87.406C213.244 86.891 214.167 86.604 215.151 86.604C216.604 86.604 217.679 87.316 218.451 87.815C218.799 88.057 218.905 88.541 218.663 88.89C218.436 89.253 217.952 89.359 217.588 89.117C216.816 88.602 216.074 88.148 215.151 88.148C214.47 88.148 213.864 88.36 213.456 88.663C213.047 88.966 212.881 89.299 212.881 89.617C212.881 89.799 212.911 89.92 212.987 90.041C213.063 90.162 213.199 90.298 213.396 90.435C213.79 90.707 214.471 90.95 215.288 91.101H215.318C216.09 91.252 216.801 91.449 217.407 91.737C218.028 92.04 218.572 92.433 218.921 92.993C219.148 93.356 219.284 93.81 219.284 94.28C219.284 95.249 218.739 96.081 217.982 96.626C217.24 97.171 216.256 97.489 215.182 97.489C213.547 97.474 212.17 96.657 211.307 95.975C210.973 95.7 210.927 95.201 211.185 94.868Z" fill="#263238"/>
<path d="M227.866 88.5863H225.459V96.6693C225.459 97.1383 225.096 97.5023 224.626 97.5023C224.172 97.5023 223.793 97.1393 223.793 96.6693V88.5863H221.401C220.932 88.5863 220.568 88.1923 220.568 87.7383C220.568 87.2693 220.931 86.9062 221.401 86.9062H227.864C228.318 86.9062 228.697 87.2693 228.697 87.7383C228.698 88.1923 228.32 88.5863 227.866 88.5863Z" fill="#263238"/>
<path d="M235.846 87.7383C235.846 87.2693 236.209 86.9062 236.679 86.9062C237.133 86.9062 237.527 87.2693 237.527 87.7383V96.6693C237.527 97.1383 237.133 97.5023 236.679 97.5023C236.21 97.5023 235.846 97.1393 235.846 96.6693V87.7383Z" fill="#263238"/>
<path d="M242.021 96.669C242.021 97.123 241.643 97.502 241.204 97.502C240.735 97.502 240.371 97.123 240.371 96.669V87.875C240.371 87.875 240.371 87.875 240.371 87.86C240.356 87.603 240.477 87.33 240.704 87.164C241.082 86.907 241.597 86.982 241.854 87.346L246.743 94.112V87.876C246.743 87.437 247.106 87.059 247.56 87.059C248.014 87.059 248.392 87.437 248.392 87.876V96.67C248.392 97.124 248.014 97.503 247.56 97.503C247.318 97.503 247.091 97.382 246.939 97.2C246.909 97.17 246.878 97.139 246.863 97.109L242.019 90.388V96.669H242.021Z" fill="#263238"/>
<path d="M256.238 94.868C256.51 94.535 257.01 94.49 257.343 94.762C258.009 95.307 259.159 95.943 260.234 95.927C260.991 95.927 261.671 95.7 262.127 95.367C262.58 95.034 262.777 94.656 262.777 94.277C262.777 94.08 262.732 93.944 262.64 93.793C262.55 93.642 262.413 93.49 262.187 93.339C261.747 93.051 261.005 92.794 260.113 92.628H260.083C259.371 92.492 258.705 92.31 258.131 92.038C257.555 91.766 257.056 91.387 256.723 90.857C256.496 90.494 256.375 90.07 256.375 89.616C256.375 88.708 256.889 87.921 257.586 87.406C258.297 86.891 259.221 86.604 260.204 86.604C261.657 86.604 262.732 87.316 263.504 87.815C263.852 88.057 263.958 88.541 263.716 88.89C263.488 89.253 263.004 89.359 262.641 89.117C261.869 88.602 261.127 88.148 260.205 88.148C259.524 88.148 258.919 88.36 258.51 88.663C258.101 88.966 257.935 89.299 257.935 89.617C257.935 89.799 257.965 89.92 258.04 90.041C258.116 90.162 258.253 90.298 258.449 90.435C258.843 90.707 259.524 90.95 260.341 91.101H260.372C261.143 91.252 261.854 91.449 262.46 91.737C263.081 92.04 263.626 92.433 263.974 92.993C264.202 93.356 264.337 93.81 264.337 94.28C264.337 95.249 263.792 96.081 263.036 96.626C262.294 97.171 261.309 97.489 260.235 97.489C258.6 97.474 257.223 96.657 256.36 95.975C256.026 95.7 255.98 95.201 256.238 94.868Z" fill="#263238"/>
<path d="M270.211 93.3843H268.35V96.6693C268.35 97.1233 267.971 97.5023 267.502 97.5023C267.047 97.5023 266.669 97.1233 266.669 96.6693V87.7383C266.669 87.2693 267.047 86.9062 267.502 86.9062H267.517H270.211C272.012 86.9062 273.465 88.3593 273.465 90.1603C273.465 91.9313 272.012 93.3843 270.211 93.3843ZM268.35 91.7043H270.211C271.089 91.7043 271.77 91.0083 271.785 90.1603C271.769 89.2823 271.089 88.5863 270.211 88.5863H268.35V91.7043Z" fill="#263238"/>
<path d="M279.84 95.0042H276.161L275.42 96.9722C275.283 97.3052 274.965 97.5022 274.633 97.5022C274.527 97.5022 274.436 97.4872 274.345 97.4572C273.907 97.2902 273.694 96.8062 273.846 96.3672L277.191 87.4512C277.327 87.1182 277.661 86.9062 277.993 86.9212C278.342 86.9062 278.659 87.1182 278.796 87.4512L282.142 96.3672C282.292 96.8062 282.081 97.2902 281.642 97.4572C281.566 97.4872 281.46 97.5022 281.355 97.5022C281.021 97.5022 280.704 97.3052 280.583 96.9722L279.84 95.0042ZM279.219 93.3392L277.992 90.0852L276.766 93.3392H279.219Z" fill="#263238"/>
<path d="M283.141 92.052C283.156 89.055 285.668 86.618 288.696 86.603C290.028 86.603 291.239 87.042 292.192 87.784C292.555 88.087 292.616 88.617 292.344 88.995C292.041 89.373 291.481 89.434 291.133 89.162C290.467 88.617 289.634 88.329 288.695 88.329C287.65 88.329 286.681 88.753 285.97 89.419C285.288 90.115 284.865 91.023 284.865 92.053C284.865 93.083 285.289 94.021 285.97 94.687C286.681 95.353 287.65 95.777 288.695 95.777C289.634 95.777 290.451 95.489 291.133 94.944C291.481 94.687 292.041 94.747 292.344 95.111C292.615 95.489 292.555 96.034 292.192 96.322C291.239 97.064 290.028 97.503 288.696 97.503C285.668 97.502 283.155 95.064 283.141 92.052Z" fill="#263238"/>
<path d="M295.28 96.6693V87.7383C295.28 87.2693 295.643 86.9062 296.112 86.9062H296.128C296.128 86.9062 296.128 86.9062 296.158 86.9062H301.062C301.501 86.9062 301.895 87.2693 301.895 87.7383C301.895 88.2073 301.501 88.5863 301.062 88.5863H296.959V91.3563H300.486C300.94 91.3563 301.318 91.7493 301.318 92.1883C301.318 92.6573 300.94 93.0363 300.486 93.0363H296.959V95.8213H301.062C301.501 95.8213 301.895 96.1993 301.895 96.6693C301.895 97.1233 301.501 97.5023 301.062 97.5023H296.158C296.128 97.5023 296.128 97.4873 296.128 97.4873L296.112 97.5023C295.644 97.5023 295.28 97.1233 295.28 96.6693Z" fill="#263238"/>
<path d="M306.937 93.1722V94.1562C306.937 94.5802 306.62 94.8982 306.196 94.8982C305.802 94.8982 305.455 94.5802 305.455 94.1562V92.5822C305.455 92.5672 305.47 92.5672 305.47 92.5522C305.455 92.5372 305.455 92.5372 305.455 92.5222C305.455 92.1282 305.803 91.7802 306.196 91.7802C307.15 91.7802 307.922 91.0232 307.922 90.0852C307.922 89.1312 307.151 88.3902 306.196 88.3902C305.576 88.3902 305.031 88.7232 304.743 89.2232C304.531 89.5862 304.077 89.7072 303.714 89.4952C303.365 89.2832 303.244 88.8442 303.457 88.4812C304.002 87.5422 305.031 86.9072 306.196 86.9072C307.952 86.9072 309.39 88.3302 309.39 90.0862C309.39 91.5832 308.345 92.8392 306.937 93.1722ZM306.937 96.4872V96.7602C306.937 97.1842 306.62 97.5022 306.196 97.5022C305.802 97.5022 305.455 97.1842 305.455 96.7602V96.4872C305.455 96.0782 305.803 95.7452 306.196 95.7452C306.619 95.7462 306.937 96.0792 306.937 96.4872Z" fill="#263238"/>
<path d="M179.861 189.008L182.122 176.344C182.769 172.719 180.356 169.256 176.731 168.609C173.106 167.962 169.643 170.376 168.996 174L166.735 186.663C166.088 190.288 168.501 193.751 172.126 194.398C175.75 195.047 179.214 192.634 179.861 189.008Z" fill="#5C5BBA"/>
<path d="M333.302 191.937L331.464 179.205C330.938 175.56 327.557 173.033 323.913 173.559C320.269 174.085 317.741 177.466 318.267 181.11L320.105 193.842C320.631 197.486 324.012 200.014 327.656 199.488C331.3 198.962 333.828 195.581 333.302 191.937Z" fill="#5C5BBA"/>
<path d="M201.759 142.446L206.811 137.732C209.503 135.22 209.649 131.001 207.137 128.309C204.625 125.617 200.406 125.471 197.714 127.983L192.662 132.697C189.97 135.209 189.824 139.428 192.336 142.12C194.848 144.812 199.067 144.958 201.759 142.446Z" fill="#5C5BBA"/>
<path d="M208.833 247.508L204.119 242.456C201.607 239.764 197.388 239.618 194.696 242.13C192.004 244.642 191.858 248.861 194.37 251.553L199.084 256.605C201.596 259.297 205.815 259.443 208.507 256.931C211.199 254.42 211.345 250.201 208.833 247.508Z" fill="#5C5BBA"/>
<path d="M323.471 155.533L314.365 142.468C313.683 141.49 312.337 141.249 311.359 141.931L303.963 147.086C302.985 147.768 302.744 149.114 303.426 150.092L312.532 163.157C313.214 164.135 314.56 164.376 315.538 163.694L322.934 158.539C323.912 157.857 324.153 156.511 323.471 155.533Z" fill="#5C5BBA"/>
<path d="M276.341 271.102L282.839 268.753C286.302 267.501 288.094 263.679 286.842 260.216C285.59 256.753 281.768 254.961 278.305 256.213L271.807 258.562C268.344 259.814 266.552 263.636 267.804 267.099C269.056 270.561 272.878 272.353 276.341 271.102Z" fill="#5C5BBA"/>
<path d="M263.478 269.094C305.333 261.812 333.361 221.979 326.079 180.123C318.797 138.268 278.964 110.241 237.109 117.523C195.254 124.804 167.226 164.638 174.508 206.493C181.79 248.348 221.623 276.376 263.478 269.094Z" fill="#5C5BBA"/>
<path opacity="0.2" d="M242.981 135.095C245.258 137.887 246.467 141.563 246.618 145.288C246.797 149.036 245.785 152.834 243.983 156.128C242.1 159.445 238.986 162.324 235.266 163.377C231.615 164.515 227.725 164.27 224.423 162.873C227.983 162.896 231.406 162.312 234.323 160.932C235.775 160.236 237.101 159.357 238.198 158.237C239.371 157.2 240.245 155.859 241.051 154.494C241.435 153.787 241.812 153.05 242.151 152.312C242.434 151.55 242.778 150.805 242.993 150.021C243.564 148.485 243.786 146.86 244.008 145.225C244.327 141.938 244.004 138.509 242.981 135.095Z" fill="black"/>
<path opacity="0.2" d="M222.827 154.536C221.077 152.735 220.112 150.193 219.935 147.588C219.749 144.97 220.387 142.259 221.676 139.959C222.98 137.591 225.288 135.579 227.928 134.895C230.53 134.159 233.252 134.458 235.459 135.629C232.995 135.833 230.74 136.362 228.872 137.341C226.983 138.297 225.646 139.816 224.61 141.593C222.499 145.336 221.83 149.694 222.827 154.536Z" fill="black"/>
<path opacity="0.2" d="M250.631 239.389C251.607 240.889 251.914 242.811 251.636 244.661C251.349 246.516 250.476 248.319 249.157 249.683C247.836 251.119 245.853 252.047 243.924 252.051C242.006 252.079 240.19 251.422 238.848 250.251C240.595 250.482 242.241 250.482 243.705 250.145C245.176 249.806 246.368 249.038 247.37 247.995C248.41 246.91 249.223 245.629 249.782 244.197C250.321 242.752 250.616 241.15 250.631 239.389Z" fill="black"/>
<path opacity="0.2" d="M240.153 247.57C239.327 246.59 239.033 245.233 239.165 243.906C239.317 242.573 239.932 241.268 240.871 240.294C241.822 239.258 243.293 238.588 244.682 238.64C246.062 238.685 247.324 239.227 248.173 240.177C246.92 240.173 245.825 240.267 244.903 240.561C243.979 240.846 243.288 241.331 242.658 241.982C241.334 243.385 240.491 245.094 240.153 247.57Z" fill="black"/>
<path opacity="0.2" d="M203.415 219.295C205.204 219.505 206.873 220.534 208.038 222.093C209.203 223.674 209.716 225.776 209.359 227.797C209.055 229.93 207.508 231.737 205.842 232.601C204.156 233.499 202.317 233.802 200.55 233.467C201.996 232.437 203.303 231.515 204.285 230.467C205.281 229.431 205.874 228.385 206.049 227.225C206.263 225.995 206.176 224.669 205.734 223.369C205.305 222.036 204.487 220.707 203.415 219.295Z" fill="black"/>
<path opacity="0.2" d="M199.867 230.874C198.534 230.923 197.263 230.271 196.353 229.173C195.444 228.052 195.027 226.497 195.293 224.996C195.521 223.388 196.725 222.038 197.967 221.477C199.226 220.89 200.563 220.783 201.817 221.228C200.884 222.147 200.08 222.873 199.523 223.611C198.952 224.343 198.701 224.934 198.602 225.568C198.479 226.279 198.47 227.057 198.655 227.897C198.832 228.769 199.253 229.722 199.867 230.874Z" fill="black"/>
<path opacity="0.2" d="M290.223 141.844C291.421 143.19 291.985 145.068 291.82 147.007C291.641 148.963 290.627 150.875 289.018 152.148C287.373 153.541 285.017 153.863 283.198 153.402C281.342 152.953 279.766 151.957 278.667 150.534C280.432 150.725 282.021 150.904 283.452 150.774C284.885 150.662 286.023 150.273 286.925 149.523C287.902 148.746 288.718 147.697 289.252 146.432C289.815 145.148 290.086 143.611 290.223 141.844Z" fill="black"/>
<path opacity="0.2" d="M279.879 148.141C278.85 147.292 278.333 145.959 278.382 144.535C278.447 143.094 279.169 141.654 280.365 140.709C281.603 139.658 283.401 139.45 284.701 139.855C286.032 140.253 287.103 141.061 287.744 142.227C286.436 142.294 285.352 142.302 284.446 142.484C283.532 142.652 282.952 142.927 282.457 143.335C281.893 143.785 281.369 144.36 280.949 145.111C280.504 145.879 280.186 146.871 279.879 148.141Z" fill="black"/>
<path d="M271.361 207.867C280.556 206.106 286.575 197.185 284.804 187.94C283.034 178.695 274.145 172.628 264.95 174.389C255.755 176.15 249.737 185.071 251.507 194.316C253.278 203.56 262.166 209.628 271.361 207.867Z" fill="#5C5BBA"/>
<path opacity="0.1" d="M271.361 207.867C280.556 206.106 286.575 197.185 284.804 187.94C283.034 178.695 274.145 172.628 264.95 174.389C255.755 176.15 249.737 185.071 251.507 194.316C253.278 203.56 262.166 209.628 271.361 207.867Z" fill="black"/>
<path opacity="0.2" d="M270.111 179.996C275.12 179.037 280.035 180.633 283.506 183.888C280.28 177.008 272.73 172.891 264.944 174.382C255.754 176.142 249.731 185.069 251.501 194.309C252.778 200.977 257.75 205.993 263.881 207.6C260.868 205.38 258.663 202.061 257.9 198.076C256.295 189.7 261.763 181.595 270.111 179.996Z" fill="black"/>
<path opacity="0.2" d="M289.077 180.031C291.741 183.551 293.13 188.061 293.261 192.608C293.419 197.18 292.172 201.794 289.97 205.806C287.684 209.837 283.942 213.325 279.441 214.661C275.019 216.094 270.272 215.889 266.165 214.325C270.53 214.514 274.81 213.891 278.498 212.215C279.429 211.813 280.271 211.267 281.128 210.764C281.91 210.15 282.761 209.627 283.42 208.878C284.911 207.575 286.018 205.886 287.037 204.172C287.517 203.283 287.985 202.36 288.407 201.433C288.759 200.477 289.189 199.544 289.45 198.558C290.143 196.627 290.413 194.59 290.651 192.544C290.99 188.435 290.487 184.173 289.077 180.031Z" fill="black"/>
<path d="M308.052 174.695C311.293 173.395 312.862 169.7 311.555 166.44C310.248 163.181 306.561 161.593 303.319 162.893C300.078 164.193 298.509 167.888 299.816 171.147C301.124 174.406 304.811 175.994 308.052 174.695Z" fill="#5C5BBA"/>
<path opacity="0.1" d="M308.052 174.695C311.293 173.395 312.862 169.7 311.555 166.44C310.248 163.181 306.561 161.593 303.319 162.893C300.078 164.193 298.509 167.888 299.816 171.147C301.124 174.406 304.811 175.994 308.052 174.695Z" fill="black"/>
<path opacity="0.2" d="M305.609 164.578C307.375 163.87 309.288 164.104 310.791 165.049C309.119 162.759 306.062 161.79 303.317 162.891C300.077 164.19 298.508 167.888 299.814 171.146C300.756 173.496 302.935 174.979 305.294 175.131C304.032 174.533 302.989 173.474 302.425 172.069C301.241 169.115 302.666 165.758 305.609 164.578Z" fill="black"/>
<path opacity="0.2" d="M312.555 163.239C313.852 164.284 314.74 165.842 315.147 167.519C315.569 169.205 315.448 171.024 314.921 172.68C314.357 174.357 313.188 175.947 311.582 176.747C310.016 177.581 308.224 177.798 306.608 177.429C308.219 177.099 309.703 176.52 310.885 175.637C312.075 174.763 312.87 173.537 313.325 172.158C314.275 169.319 314.043 166.182 312.555 163.239Z" fill="black"/>
<path d="M295.796 233.419C300.013 230.803 301.301 225.245 298.671 221.006C296.041 216.766 290.49 215.449 286.273 218.065C282.056 220.681 280.769 226.239 283.399 230.479C286.029 234.718 291.579 236.035 295.796 233.419Z" fill="#5C5BBA"/>
<path opacity="0.1" d="M295.796 233.419C300.013 230.803 301.301 225.245 298.671 221.006C296.041 216.766 290.49 215.449 286.273 218.065C282.056 220.681 280.769 226.239 283.399 230.479C286.029 234.718 291.579 236.035 295.796 233.419Z" fill="black"/>
<path opacity="0.2" d="M289.891 219.861C292.188 218.436 294.924 218.293 297.259 219.246C294.357 216.453 289.839 215.847 286.268 218.062C282.053 220.677 280.765 226.238 283.394 230.476C285.291 233.534 288.704 235.074 292.043 234.706C290.13 234.178 288.41 232.954 287.276 231.126C284.893 227.285 286.062 222.236 289.891 219.861Z" fill="black"/>
<path opacity="0.2" d="M299.284 216.281C301.239 217.549 302.795 219.495 303.704 221.726C304.64 223.955 304.894 226.466 304.566 228.863C304.201 231.283 303.02 233.706 301.058 235.221C299.156 236.782 296.768 237.555 294.449 237.603C296.656 236.911 298.657 235.765 300.179 234.248C301.719 232.733 302.595 230.732 302.904 228.625C303.226 226.474 303.077 224.268 302.473 222.164C301.843 220.069 300.799 218.033 299.284 216.281Z" fill="black"/>
<path d="M212.188 185.127C212.395 192.07 206.205 197.887 198.362 198.121C190.519 198.355 183.993 192.916 183.787 185.973C183.58 179.03 189.77 173.213 197.613 172.979C205.455 172.745 211.981 178.184 212.188 185.127Z" fill="#5C5BBA"/>
<path opacity="0.1" d="M212.188 185.127C212.395 192.07 206.205 197.887 198.362 198.121C190.519 198.355 183.993 192.916 183.787 185.973C183.58 179.03 189.77 173.213 197.613 172.979C205.455 172.745 211.981 178.184 212.188 185.127Z" fill="black"/>
<path opacity="0.2" d="M189.272 188.789C189.385 192.571 191.561 195.867 194.83 197.845C188.653 196.637 183.954 191.848 183.779 185.969C183.572 179.03 189.767 173.208 197.606 172.975C203.263 172.807 208.234 175.583 210.637 179.757C208.292 177.94 205.196 176.888 201.816 176.989C194.708 177.2 189.085 182.485 189.272 188.789Z" fill="black"/>
<path opacity="0.2" d="M210.498 174.598C213.697 175.87 216.46 178.52 217.885 181.948C218.648 183.649 218.876 185.563 218.841 187.418C218.82 189.296 218.306 191.081 217.628 192.871C216.769 194.561 215.688 196.145 214.304 197.383C212.905 198.582 211.415 199.657 209.768 200.351C206.537 201.843 203.046 202.549 199.604 202.406C202.829 201.262 205.89 199.93 208.594 198.202C211.293 196.481 213.54 194.269 214.77 191.579C215.321 190.239 215.788 188.743 215.884 187.233C216.062 185.733 215.956 184.213 215.574 182.73C214.793 179.769 212.974 176.953 210.498 174.598Z" fill="black"/>
<path d="M260.78 410.355L264.839 411.105L265.746 415.384L266.653 411.105L270.712 410.353L266.671 409.365L265.746 405.324L264.822 409.365L260.78 410.355Z" fill="#161C2D"/>
<path d="M169.967 260.058L174.026 260.809L174.933 265.087L175.84 260.809L179.899 260.056L175.857 259.069L174.933 255.027L174.008 259.069L169.967 260.058Z" fill="#161C2D"/>
<path d="M395.483 258.292L399.542 259.042L400.449 263.321L401.356 259.042L405.415 258.289L401.373 257.302L400.449 253.26L399.524 257.302L395.483 258.292Z" fill="#161C2D"/>
<path d="M439.361 372.849L441.629 373.268L442.136 375.66L442.643 373.268L444.912 372.848L442.653 372.296L442.136 370.037L441.62 372.296L439.361 372.849Z" fill="#161C2D"/>
<path d="M408.298 95.1723L410.566 95.5914L411.073 97.9834L411.58 95.5914L413.849 95.1713L411.59 94.6194L411.073 92.3604L410.557 94.6194L408.298 95.1723Z" fill="#161C2D"/>
<path d="M452.999 166.293L455.268 166.712L455.775 169.104L456.282 166.712L458.55 166.292L456.291 165.74L455.775 163.481L455.258 165.74L452.999 166.293Z" fill="#161C2D"/>
<path d="M106.578 198.363L108.847 198.782L109.354 201.174L109.861 198.782L112.13 198.361L109.871 197.81L109.354 195.551L108.837 197.81L106.578 198.363Z" fill="#161C2D"/>
<path d="M48.7051 384.688L50.9741 385.107L51.4811 387.498L51.9881 385.107L54.2561 384.686L51.9971 384.134L51.4811 381.875L50.9641 384.134L48.7051 384.688Z" fill="#161C2D"/>
<path d="M425.057 325.777L427.326 326.196L427.833 328.588L428.34 326.196L430.609 325.775L428.35 325.224L427.833 322.965L427.316 325.224L425.057 325.777Z" fill="#161C2D"/>
<path d="M115.682 398.489L117.95 398.908L118.457 401.3L118.964 398.908L121.233 398.487L118.974 397.936L118.457 395.677L117.941 397.936L115.682 398.489Z" fill="#161C2D"/>
<path d="M195.593 104.866L197.862 105.285L198.369 107.677L198.876 105.285L201.144 104.865L198.885 104.313L198.369 102.054L197.852 104.313L195.593 104.866Z" fill="#161C2D"/>
<path d="M329.91 171.916L332.178 172.335L332.686 174.727L333.192 172.335L335.461 171.915L333.202 171.363L332.686 169.104L332.169 171.363L329.91 171.916Z" fill="#161C2D"/>
<path d="M149.638 351.769L151.906 352.189L152.413 354.58L152.92 352.189L155.189 351.768L152.93 351.216L152.413 348.957L151.897 351.216L149.638 351.769Z" fill="#161C2D"/>
<path d="M51.4813 425.74C52.3273 425.74 52.3283 427.055 51.4813 427.055C50.6343 427.055 50.6333 425.74 51.4813 425.74Z" fill="#161C2D"/>
<path d="M379.145 345.682C379.991 345.682 379.993 346.997 379.145 346.997C378.299 346.997 378.297 345.682 379.145 345.682Z" fill="#161C2D"/>
<path d="M385.356 251.647C386.202 251.647 386.204 252.962 385.356 252.962C384.51 252.962 384.508 251.647 385.356 251.647Z" fill="#161C2D"/>
<path d="M339.365 203.165C340.211 203.165 340.213 204.48 339.365 204.48C338.519 204.48 338.517 203.165 339.365 203.165Z" fill="#161C2D"/>
<path d="M136.329 434.635C137.175 434.635 137.177 435.95 136.329 435.95C135.483 435.95 135.481 434.635 136.329 434.635Z" fill="#161C2D"/>
<path d="M109.354 396.518C110.2 396.518 110.202 397.833 109.354 397.833C108.508 397.833 108.506 396.518 109.354 396.518Z" fill="#161C2D"/>
<path d="M177.138 379.064C177.984 379.064 177.986 380.379 177.138 380.379C176.292 380.379 176.291 379.064 177.138 379.064Z" fill="#161C2D"/>
<path d="M301.659 396.518C302.505 396.518 302.507 397.833 301.659 397.833C300.813 397.833 300.811 396.518 301.659 396.518Z" fill="#161C2D"/>
<path d="M410.438 354.299C411.284 354.299 411.286 355.614 410.438 355.614C409.592 355.614 409.591 354.299 410.438 354.299Z" fill="#161C2D"/>
<path d="M382.919 281.555C383.765 281.555 383.767 282.87 382.919 282.87C382.073 282.87 382.072 281.555 382.919 281.555Z" fill="#161C2D"/>
<path d="M271.227 395.211C271.826 395.211 271.827 396.142 271.227 396.142C270.628 396.142 270.627 395.211 271.227 395.211Z" fill="#161C2D"/>
<path d="M127.498 106.664C128.097 106.664 128.098 107.595 127.498 107.595C126.899 107.594 126.898 106.664 127.498 106.664Z" fill="#161C2D"/>
<path d="M308.034 340.912C308.633 340.912 308.634 341.843 308.034 341.843C307.436 341.842 307.435 340.912 308.034 340.912Z" fill="#161C2D"/>
<path d="M128.672 400.834C129.271 400.834 129.272 401.765 128.672 401.765C128.073 401.765 128.072 400.834 128.672 400.834Z" fill="#161C2D"/>
<path d="M247.641 288.593C248.24 288.593 248.241 289.523 247.641 289.523C247.043 289.524 247.042 288.593 247.641 288.593Z" fill="#161C2D"/>
<path d="M348.258 293.935C349.881 293.935 349.883 296.457 348.258 296.457C346.635 296.457 346.633 293.935 348.258 293.935Z" fill="#161C2D"/>
<path d="M171.536 120.162L175.595 120.912L176.502 125.191L177.409 120.912L181.468 120.16L177.426 119.172L176.502 115.131L175.578 119.172L171.536 120.162Z" fill="#161C2D"/>
<path d="M342.192 154.51L346.251 155.26L347.158 159.538L348.065 155.26L352.124 154.507L348.083 153.52L347.158 149.478L346.234 153.52L342.192 154.51Z" fill="#161C2D"/>
<path d="M46.5156 257.112L50.5746 257.862L51.4816 262.141L52.3886 257.862L56.4476 257.11L52.4056 256.122L51.4816 252.081L50.5566 256.122L46.5156 257.112Z" fill="#161C2D"/>
<path d="M406.106 53.2961L410.165 54.0471L411.072 58.3251L411.979 54.0471L416.038 53.2941L411.997 52.3071L411.072 48.2651L410.148 52.3071L406.106 53.2961Z" fill="#161C2D"/>
<path d="M260.195 62.9492L262.464 63.3692L262.971 65.7602L263.478 63.3692L265.746 62.9482L263.487 62.3962L262.971 60.1372L262.454 62.3962L260.195 62.9492Z" fill="#161C2D"/>
<path d="M51.4814 142.842L53.7494 143.262L54.2564 145.653L54.7634 143.262L57.0324 142.841L54.7734 142.289L54.2564 140.03L53.7404 142.289L51.4814 142.842Z" fill="#161C2D"/>
<path d="M93.1495 138.873C93.9955 138.873 93.9975 140.188 93.1495 140.188C92.3035 140.188 92.3025 138.873 93.1495 138.873Z" fill="#161C2D"/>
<path d="M43.144 374.454C43.99 374.454 43.992 375.769 43.144 375.769C42.298 375.769 42.296 374.454 43.144 374.454Z" fill="#161C2D"/>
<path d="M97.0913 351.768C97.9373 351.768 97.9393 353.083 97.0913 353.083C96.2453 353.083 96.2433 351.768 97.0913 351.768Z" fill="#161C2D"/>
<path d="M43.7794 185.247C44.6254 185.247 44.6274 186.562 43.7794 186.562C42.9334 186.563 42.9324 185.247 43.7794 185.247Z" fill="#161C2D"/>
<path d="M97.0917 86.3613C97.9377 86.3613 97.9387 87.6763 97.0917 87.6763C96.2447 87.6763 96.2437 86.3613 97.0917 86.3613Z" fill="#161C2D"/>
<path d="M183.214 52.6382C184.06 52.6382 184.062 53.9532 183.214 53.9532C182.368 53.9532 182.366 52.6382 183.214 52.6382Z" fill="#161C2D"/>
<path d="M156.788 287.797C157.387 287.797 157.388 288.728 156.788 288.728C156.19 288.728 156.189 287.797 156.788 287.797Z" fill="#161C2D"/>
<path d="M156.338 407.629C156.937 407.629 156.938 408.56 156.338 408.56C155.739 408.56 155.738 407.629 156.338 407.629Z" fill="#161C2D"/>
<path d="M394 134.228L396.268 134.648L396.775 137.039L397.283 134.648L399.551 134.227L397.292 133.675L396.775 131.416L396.259 133.675L394 134.228Z" fill="#161C2D"/>
<path d="M444.774 252.976L447.043 253.396L447.55 255.787L448.057 253.396L450.325 252.975L448.067 252.423L447.55 250.164L447.033 252.423L444.774 252.976Z" fill="#161C2D"/>
<path d="M387.674 136.486C388.52 136.486 388.522 137.801 387.674 137.801C386.828 137.801 386.827 136.486 387.674 136.486Z" fill="#161C2D"/>
<path d="M320.499 70.7471C321.098 70.7471 321.099 71.6771 320.499 71.6771C319.9 71.6781 319.899 70.7471 320.499 70.7471Z" fill="#161C2D"/>
<path d="M221.546 450.804C222.145 450.804 222.146 451.735 221.546 451.735C220.947 451.735 220.946 450.804 221.546 450.804Z" fill="#161C2D"/>
<path d="M434.658 147.597C435.257 147.597 435.258 148.528 434.658 148.528C434.06 148.528 434.059 147.597 434.658 147.597Z" fill="#161C2D"/>
<path d="M341.059 124.726C341.658 124.726 341.659 125.657 341.059 125.657C340.461 125.656 340.46 124.726 341.059 124.726Z" fill="#161C2D"/>
<path d="M342.406 53.4873C343.005 53.4873 343.006 54.4183 342.406 54.4183C341.807 54.4183 341.806 53.4873 342.406 53.4873Z" fill="#161C2D"/>
<path d="M212.067 271.268C213.69 271.268 213.692 273.79 212.067 273.79C210.445 273.79 210.442 271.268 212.067 271.268Z" fill="#161C2D"/>
<path d="M384.138 206.745C385.761 206.745 385.763 209.267 384.138 209.267C382.516 209.266 382.513 206.745 384.138 206.745Z" fill="#161C2D"/>
<path d="M99.2284 208.006C100.851 208.006 100.853 210.528 99.2284 210.528C97.6064 210.527 97.6034 208.006 99.2284 208.006Z" fill="#161C2D"/>
<path d="M446.13 215.608C447.753 215.608 447.755 218.13 446.13 218.13C444.507 218.129 444.504 215.608 446.13 215.608Z" fill="#161C2D"/>
<path d="M81.6608 331.027C83.2838 331.027 83.2858 333.549 81.6608 333.549C80.0378 333.549 80.0348 331.027 81.6608 331.027Z" fill="#161C2D"/>
<path d="M145.247 84.8662L147.515 85.2852L148.022 87.6762L148.529 85.2852L150.798 84.8642L148.539 84.3122L148.022 82.0542L147.506 84.3122L145.247 84.8662Z" fill="#161C2D"/>
<path d="M268.947 322.627L271.215 323.047L271.722 325.438L272.229 323.047L274.498 322.626L272.239 322.074L271.722 319.815L271.206 322.074L268.947 322.627Z" fill="#161C2D"/>
<path d="M342.192 431.941C343.038 431.941 343.04 433.256 342.192 433.256C341.346 433.256 341.345 431.941 342.192 431.941Z" fill="#161C2D"/>
<path d="M298.599 425.74C299.445 425.74 299.447 427.055 298.599 427.055C297.753 427.055 297.752 425.74 298.599 425.74Z" fill="#161C2D"/>
<path d="M312.627 250.001L314.896 250.42L315.403 252.811L315.91 250.42L318.178 249.999L315.919 249.447L315.403 247.189L314.886 249.447L312.627 250.001Z" fill="#161C2D"/>
<path d="M390.382 386.332L392.651 386.751L393.157 389.143L393.665 386.751L395.933 386.33L393.674 385.779L393.157 383.52L392.641 385.779L390.382 386.332Z" fill="#161C2D"/>
<path d="M411.072 443.647L413.341 444.067L413.848 446.458L414.355 444.067L416.623 443.646L414.365 443.094L413.848 440.835L413.331 443.094L411.072 443.647Z" fill="#161C2D"/>
<path d="M322.199 123.876C323.045 123.876 323.047 125.191 322.199 125.191C321.352 125.191 321.351 123.876 322.199 123.876Z" fill="#161C2D"/>
<path d="M395.932 416.524C396.531 416.524 396.532 417.454 395.932 417.454C395.333 417.454 395.332 416.524 395.932 416.524Z" fill="#161C2D"/>
<path d="M68.3115 271.268L70.5805 271.688L71.0875 274.079L71.5945 271.688L73.8635 271.267L71.6045 270.715L71.0875 268.457L70.5705 270.715L68.3115 271.268Z" fill="#161C2D"/>
<path d="M42.0854 319.949C42.9314 319.949 42.9334 321.264 42.0854 321.264C41.2394 321.264 41.2374 319.949 42.0854 319.949Z" fill="#161C2D"/>
<path d="M204.559 216.211C205.405 216.211 205.407 217.526 204.559 217.526C203.713 217.526 203.711 216.211 204.559 216.211Z" fill="#161C2D"/>
<path d="M156.338 143.417C156.937 143.417 156.938 144.348 156.338 144.348C155.739 144.347 155.738 143.417 156.338 143.417Z" fill="#161C2D"/>
<path d="M80.442 61.688C82.065 61.688 82.067 64.21 80.442 64.21C78.819 64.21 78.816 61.688 80.442 61.688Z" fill="#161C2D"/>
<path d="M379.335 89.8379C380.958 89.8379 380.96 92.3599 379.335 92.3599C377.712 92.3599 377.709 89.8379 379.335 89.8379Z" fill="#161C2D"/>
<path d="M367.652 440.835C361.965 440.835 356.19 440.082 350.444 438.552C336.211 434.761 325.286 426.223 318.849 413.859C311.317 399.392 311.447 383.066 314.753 374.019L317.571 375.048C314.383 383.766 314.714 399.42 321.51 412.473C327.547 424.07 337.819 432.085 351.215 435.654C370.444 440.774 390.022 436.774 404.937 424.679C421.5 411.247 429.888 389.86 428.558 364.454C427.23 339.069 415.515 308.379 403.113 275.886C391.149 244.539 378.777 212.126 376.192 184.155C373.504 155.081 381.478 129.147 399.254 109.155C421.042 84.6509 456.808 70.5619 499.964 69.4819L500.038 72.4809C457.722 73.5399 422.725 87.2719 401.496 111.148C384.286 130.503 376.569 155.652 379.179 183.878C381.727 211.439 394.025 243.658 405.917 274.816C418.405 307.536 430.201 338.44 431.555 364.297C432.936 390.685 424.155 412.956 406.827 427.008C395.624 436.095 381.922 440.835 367.652 440.835Z" fill="#C7C7C7"/>
<path d="M288.008 355.551C287.701 356.266 305.943 394.396 307.382 395.928C307.434 395.989 307.514 396.052 307.614 396.124C309.774 397.825 324.201 403.492 325.364 403.878C328.232 404.83 357 360.513 359.202 352.665C359.754 350.696 347.935 327.305 343.915 324.079C342.194 322.699 335.659 320.514 334.836 320.777C334.836 320.777 334.836 320.777 334.829 320.783C333.66 321.225 288.322 354.83 288.008 355.551Z" fill="#5C5BBA"/>
<path opacity="0.1" d="M288.008 355.551C287.701 356.266 305.943 394.396 307.382 395.928C307.434 395.989 307.514 396.052 307.614 396.124C309.774 397.825 324.201 403.492 325.364 403.878C328.232 404.83 357 360.513 359.202 352.665C359.754 350.696 347.935 327.305 343.915 324.079C342.194 322.699 335.659 320.514 334.836 320.777C334.836 320.777 334.836 320.777 334.829 320.783C333.66 321.225 288.322 354.83 288.008 355.551Z" fill="black"/>
<path opacity="0.1" d="M288.008 355.551C287.701 356.266 305.943 394.396 307.382 395.928C307.434 395.989 307.514 396.052 307.614 396.124C315.037 387.885 349.855 349.184 349.883 348.565C349.91 347.96 338.015 325.894 334.829 320.783C333.66 321.225 288.322 354.83 288.008 355.551Z" fill="black"/>
<path d="M184.311 324.455C184.311 324.455 148.897 329.361 148.873 329.365C142.105 330.339 136.155 331.072 133.042 331.164C133.026 331.167 133.009 331.17 132.991 331.165C131.816 331.201 131.055 331.145 130.829 330.966C130.81 330.953 130.792 330.947 130.781 330.932C129.127 329.114 119.767 275.259 120.074 273.271C120.371 271.276 126.07 271.998 128.101 273.798C130.135 275.615 142.938 294.623 142.938 294.623L178.383 290.055L184.311 324.455Z" fill="#161C2D"/>
<path d="M125.621 331.978L125.091 329.205C125.389 329.129 125.68 329.002 125.949 328.816C127.199 327.953 127.515 326.23 126.651 324.98C126.051 324.111 125.041 323.691 124.055 323.8L123.571 321.281C123.88 321.207 124.183 321.071 124.458 320.881C125.715 320.013 126.028 318.301 125.16 317.045C124.556 316.17 123.529 315.752 122.539 315.882L122.051 313.357C122.37 313.284 122.684 313.151 122.972 312.952C124.229 312.084 124.538 310.366 123.675 309.116C123.058 308.222 122.025 307.809 121.02 307.958L120.536 305.439C120.868 305.358 121.188 305.22 121.488 305.013C122.738 304.15 123.058 302.433 122.19 301.177C121.573 300.283 120.508 299.864 119.501 300.024L119.017 297.505C119.364 297.432 119.694 297.296 120.001 297.084C121.251 296.221 121.567 294.498 120.703 293.248C120.073 292.335 118.995 291.925 117.976 292.093L117.497 289.58C117.858 289.515 118.202 289.37 118.514 289.155C119.771 288.287 120.08 286.569 119.217 285.319C118.582 284.4 117.495 283.988 116.463 284.165L115.979 281.646C116.351 281.583 116.705 281.44 117.03 281.216C118.281 280.353 118.6 278.636 117.733 277.38C117.094 276.455 115.985 276.039 114.943 276.241L114.487 273.869L120.068 273.275L130.823 330.974L125.621 331.978Z" fill="#37474F"/>
<path d="M142.513 328.746C142.331 325.32 140.395 322.136 138.187 320.467C136.065 318.863 133.175 317.592 130.2 317.975C130.115 317.986 130.127 318.144 130.217 318.149C135.926 318.44 141.356 323.097 142.333 328.764C142.353 328.877 142.52 328.863 142.513 328.746Z" fill="#37474F"/>
<path d="M149.287 327.031C149.047 323.088 148.48 319.172 147.878 315.27C147.283 311.409 146.666 307.553 146.023 303.699C145.655 301.494 145.281 299.281 144.795 297.099C144.763 296.954 144.555 296.992 144.566 297.137C144.864 301.071 145.457 304.988 145.981 308.897C146.5 312.769 147.049 316.638 147.671 320.495C148.028 322.709 148.437 324.903 148.957 327.085C149.007 327.295 149.299 327.24 149.287 327.031Z" fill="#37474F"/>
<path d="M152.277 326.176C152.037 322.233 151.47 318.317 150.868 314.415C150.273 310.554 149.655 306.698 149.013 302.844C148.645 300.639 148.271 298.426 147.785 296.244C147.753 296.099 147.545 296.137 147.556 296.283C147.854 300.216 148.447 304.134 148.971 308.043C149.49 311.916 150.039 315.784 150.661 319.641C151.018 321.855 151.427 324.049 151.947 326.231C151.998 326.44 152.29 326.385 152.277 326.176Z" fill="#37474F"/>
<path d="M159.436 327.901L155.428 293.015C155.428 293.015 158.887 289.324 165.571 288.167C180.339 285.609 207.385 284.698 223.132 287.465C236.419 289.8 278.618 329.397 285.264 334.646C287.688 336.56 293.332 333.119 293.332 333.119L312.552 372.444C312.552 372.444 297.387 382.599 282.378 373.785C263.906 362.939 225.964 324.718 218.46 323.171C211.681 321.773 182.656 328.521 168.016 330.31C162.899 330.935 159.436 327.901 159.436 327.901Z" fill="#5C5BBA"/>
<path d="M164.541 324.827C164.456 320.878 164.043 316.942 163.595 313.02C163.152 309.139 162.687 305.261 162.196 301.386C161.915 299.168 161.628 296.942 161.228 294.743C161.201 294.597 160.992 294.627 160.997 294.772C161.14 298.714 161.579 302.652 161.949 306.578C162.316 310.468 162.712 314.355 163.182 318.234C163.452 320.461 163.774 322.668 164.208 324.87C164.251 325.08 164.545 325.036 164.541 324.827Z" fill="#263238"/>
<path opacity="0.1" d="M223.98 301.737C223.064 302.128 222.364 302.881 221.717 303.627C221.113 304.408 220.558 305.244 220.136 306.131C219.269 307.9 218.68 309.784 218.317 311.687C218.133 312.639 218.016 313.599 217.912 314.558C217.857 315.52 217.782 316.481 217.801 317.442C217.825 318.403 217.87 319.363 217.967 320.318C218.101 321.274 218.227 322.226 218.459 323.171C218.735 322.229 218.907 321.294 219.086 320.363C219.246 319.432 219.455 318.51 219.589 317.587C219.743 316.665 219.923 315.754 220.057 314.838L220.31 313.477C220.394 313.025 220.447 312.564 220.556 312.12C220.898 310.315 221.298 308.54 221.798 306.79C222.323 305.051 222.866 303.304 223.98 301.737Z" fill="black"/>
<path d="M237.717 301.703C240.267 297.284 237.287 290.789 231.06 287.196C224.834 283.603 217.719 284.272 215.169 288.691C212.619 293.11 215.599 299.605 221.826 303.198C228.052 306.791 235.167 306.122 237.717 301.703Z" fill="#5C5BBA"/>
<path opacity="0.1" d="M237.717 301.703C240.267 297.284 237.287 290.789 231.06 287.196C224.834 283.603 217.719 284.272 215.169 288.691C212.619 293.11 215.599 299.605 221.826 303.198C228.052 306.791 235.167 306.122 237.717 301.703Z" fill="black"/>
<path opacity="0.1" d="M312.553 372.44C312.553 372.44 297.388 382.6 282.381 373.789C263.909 362.937 225.967 324.716 218.458 323.174C211.68 321.773 182.658 328.525 168.013 330.31C162.905 330.933 159.442 327.899 159.442 327.899L155.765 295.899L302.576 352.022L312.553 372.44Z" fill="black"/>
<path d="M237.32 368.609C237.32 368.609 244.959 403.535 244.965 403.559C246.461 410.231 247.653 416.106 247.987 419.203C247.991 419.219 247.995 419.235 247.992 419.254C248.119 420.422 248.122 421.185 247.962 421.425C247.95 421.445 247.946 421.463 247.932 421.476C246.248 423.266 193.281 436.776 191.276 436.624C189.264 436.483 189.542 430.745 191.179 428.58C192.832 426.411 210.79 412.172 210.79 412.172L203.486 377.188L237.32 368.609Z" fill="#161C2D"/>
<path d="M249.373 426.537L246.649 427.28C246.55 426.989 246.4 426.709 246.195 426.455C245.237 425.275 243.495 425.094 242.316 426.052C241.496 426.718 241.156 427.757 241.341 428.732L238.867 429.409C238.769 429.107 238.61 428.815 238.399 428.556C237.437 427.37 235.705 427.191 234.52 428.153C233.694 428.823 233.358 429.88 233.564 430.857L231.084 431.539C230.987 431.226 230.829 430.924 230.609 430.652C229.646 429.466 227.909 429.291 226.73 430.249C225.887 430.934 225.555 431.996 225.782 432.986L223.308 433.663C223.201 433.339 223.039 433.03 222.809 432.747C221.851 431.567 220.115 431.382 218.93 432.344C218.086 433.029 217.751 434.123 217.989 435.114L215.515 435.792C215.415 435.452 215.254 435.133 215.019 434.844C214.061 433.664 212.319 433.483 211.14 434.441C210.279 435.14 209.953 436.246 210.2 437.249L207.732 437.922C207.639 437.567 207.469 437.236 207.229 436.941C206.266 435.755 204.529 435.58 203.35 436.538C202.483 437.242 202.156 438.358 202.413 439.373L199.939 440.051C199.847 439.685 199.678 439.343 199.429 439.037C198.471 437.857 196.735 437.672 195.55 438.634C194.677 439.343 194.348 440.481 194.631 441.504L192.302 442.142L191.276 436.624L247.966 421.425L249.373 426.537Z" fill="#37474F"/>
<path d="M244.84 409.946C241.438 410.394 238.415 412.57 236.921 414.901C235.487 417.141 234.444 420.121 235.056 423.057C235.073 423.141 235.23 423.117 235.228 423.027C235.076 417.312 239.297 411.537 244.871 410.124C244.984 410.096 244.957 409.931 244.84 409.946Z" fill="#37474F"/>
<path d="M242.606 403.327C238.694 403.872 234.833 404.741 230.99 405.644C227.187 406.537 223.39 407.451 219.598 408.391C217.428 408.929 215.251 409.473 213.113 410.127C212.971 410.17 213.025 410.375 213.169 410.352C217.067 409.75 220.927 408.855 224.783 408.029C228.604 407.211 232.418 406.364 236.215 405.444C238.395 404.916 240.55 404.339 242.686 403.65C242.89 403.585 242.813 403.298 242.606 403.327Z" fill="#37474F"/>
<path d="M241.521 400.411C237.609 400.956 233.748 401.826 229.905 402.728C226.102 403.621 222.305 404.536 218.513 405.475C216.343 406.013 214.166 406.557 212.028 407.211C211.886 407.254 211.94 407.459 212.084 407.436C215.982 406.834 219.842 405.939 223.698 405.113C227.519 404.295 231.333 403.448 235.13 402.528C237.31 402 239.465 401.423 241.601 400.734C241.805 400.67 241.728 400.382 241.521 400.411Z" fill="#37474F"/>
<path d="M295.375 337.318C295.375 337.318 280.384 341.389 279.257 341.7C278.651 341.867 278.193 346.595 278.193 346.595C278.193 346.595 236.267 323.327 219.1 322.906C213.22 322.762 199.699 332.436 198.946 341.726C197.726 356.792 199.319 377.886 202.167 390.249C203.438 395.767 207.229 400.556 207.229 400.556L243.052 393.888C243.052 393.888 243.689 386.54 242.97 382.477C241.883 376.333 237.832 362.389 237.832 362.389C249.335 364.324 280.509 379.861 280.509 379.861C280.509 379.861 297.336 392.978 315.419 377.769L295.375 337.318Z" fill="#5C5BBA"/>
<path d="M279.373 340.518C279.07 344.089 278.319 347.685 277.469 351.167C277.436 351.304 277.254 351.28 277.276 351.137C277.814 347.584 278.286 343.985 278.996 340.46C279.051 340.181 279.396 340.244 279.373 340.518Z" fill="#263238"/>
<path d="M295.39 335.403C295.472 335.384 295.524 335.535 295.437 335.563C292.683 336.441 290.306 337.428 287.792 338.527C286.625 339.037 280.265 342.266 281.248 344.423C281.413 344.784 281.797 344.87 282.332 344.76C282.976 344.628 283.688 344.112 284.287 343.792C285.611 343.084 286.951 342.425 288.317 341.837C290.866 340.739 293.466 339.876 296.138 339.381C296.226 339.365 296.249 339.505 296.163 339.533C292.559 340.707 288.986 341.988 285.548 343.758C283.896 344.608 281.524 346.418 280.824 344.499C280.111 342.543 284.149 339.808 285.277 339.172C288.429 337.396 291.987 336.203 295.39 335.403Z" fill="#263238"/>
<path d="M281.066 344.166C280.577 344.598 280.054 344.988 279.522 345.347C279.109 345.626 278.671 345.966 278.197 346.061C278.105 346.079 278.068 345.951 278.117 345.878C278.424 345.424 278.911 345.116 279.32 344.785C279.793 344.401 280.261 344.006 280.743 343.637C281.063 343.393 281.368 343.9 281.066 344.166Z" fill="#263238"/>
<path d="M209.76 394.52C213.618 394.054 217.429 393.261 221.224 392.436C224.979 391.62 228.728 390.781 232.472 389.918C234.615 389.424 236.765 388.923 238.878 388.312C239.018 388.271 238.968 388.066 238.826 388.086C234.981 388.61 231.17 389.428 227.364 390.176C223.593 390.917 219.828 391.688 216.078 392.531C213.925 393.015 211.797 393.549 209.686 394.194C209.484 394.256 209.556 394.545 209.76 394.52Z" fill="#263238"/>
<path opacity="0.1" d="M218.612 337.324C218.38 338.695 218.812 340.099 219.248 341.388C219.476 342.044 219.772 342.66 220.044 343.298C220.346 343.911 220.669 344.52 221.003 345.117C222.337 347.516 224.002 349.67 225.737 351.743C227.504 353.787 229.386 355.721 231.41 357.493C233.41 359.29 235.543 360.936 237.832 362.389C236.28 360.145 234.558 358.109 232.853 356.07C231.146 354.034 229.419 352.038 227.7 350.046C226.007 348.038 224.283 346.056 222.679 343.995C221.892 342.956 221.091 341.921 220.383 340.826C219.66 339.737 218.957 338.628 218.612 337.324Z" fill="black"/>
<path d="M226.133 325.98C223.898 321.394 216.847 320.229 210.384 323.378C203.921 326.528 200.494 332.799 202.73 337.386C204.965 341.972 212.016 343.137 218.479 339.988C224.941 336.838 228.368 330.566 226.133 325.98Z" fill="#5C5BBA"/>
<path opacity="0.1" d="M226.133 325.98C223.898 321.394 216.847 320.229 210.384 323.378C203.921 326.528 200.494 332.799 202.73 337.386C204.965 341.972 212.016 343.137 218.479 339.988C224.941 336.838 228.368 330.566 226.133 325.98Z" fill="black"/>
<path d="M332.212 334.309C319.345 315.964 312.237 300.518 312.591 293.67C312.901 287.673 315.987 270.039 321.601 260.477C323.291 257.598 341.145 264.577 340.702 268.118C340.252 271.724 334.954 290.137 334.455 294.757C334.173 297.373 339.447 323.974 340.762 329.993C342.957 340.044 337.923 342.451 332.212 334.309Z" fill="#F7A9A0"/>
<path d="M329.323 247.536C328.366 248.539 327.833 248.043 328.069 245.591C328.302 243.109 331.318 233.629 327.913 232.858C324.497 232.078 320.448 245.564 320.369 249.679C320.28 253.795 321.603 260.478 321.603 260.478C322.918 258.012 326.68 252.338 329.323 247.536Z" fill="#A6A6A6"/>
<path d="M340.703 268.118C344.155 261.04 348.884 252.439 348.19 243.581C348.054 241.843 347.105 240.912 347.105 240.912C346.864 236.936 344.915 235.856 344.915 235.856C343.557 232.221 341.411 231.391 341.411 231.391C341.411 231.391 341.078 226.727 338.225 226.46C335.027 226.151 336.121 232.763 334.499 236.766C330.783 245.939 322.936 257.937 321.601 260.476L340.703 268.118Z" fill="#A6A6A6"/>
<path d="M337.36 249.116C338.4 246.395 339.492 243.749 340.158 240.901C340.888 237.776 341.067 234.647 341.329 231.466C341.337 231.367 341.476 231.368 341.483 231.467C341.921 237.301 340.29 244.046 337.483 249.165C337.416 249.289 337.308 249.253 337.36 249.116Z" fill="#263238"/>
<path d="M342.572 252.163C343.437 249.459 344.926 244.697 344.821 235.857C344.821 235.828 344.87 235.818 344.874 235.85C345.706 241.58 344.901 246.901 342.701 252.204C342.632 252.369 342.515 252.343 342.572 252.163Z" fill="#263238"/>
<path d="M345.402 253.749C346.698 249.095 346.925 245.997 347.084 240.932C347.085 240.903 347.135 240.897 347.137 240.929C347.561 246.704 347.06 248.847 345.555 253.816C345.504 253.986 345.352 253.93 345.402 253.749Z" fill="#263238"/>
<path d="M340.702 268.118L321.601 260.477C321.601 260.477 318.588 261.805 316.623 265.126C314.657 268.448 310.929 291.574 312.375 298.115C313.821 304.656 326.28 328.602 333.057 336.633C339.834 344.663 342.675 338.827 341.547 332.038C340.418 325.249 335.387 296.893 335.407 295.194C335.427 293.495 340.642 278.24 341.434 275.087C342.226 271.934 340.702 268.118 340.702 268.118Z" fill="#5C5BBA"/>
<path opacity="0.1" d="M333.055 336.633C327.917 330.547 319.507 315.291 315.106 305.425L338.277 313.095C339.609 320.832 341.017 328.832 341.55 332.038C342.678 338.83 339.839 344.661 333.055 336.633Z" fill="black"/>
<path opacity="0.1" d="M339.825 272.908C337.191 271.701 334.488 270.631 331.784 269.578C329.109 268.536 326.431 267.504 323.749 266.484C322.214 265.9 320.672 265.315 319.12 264.785C319.017 264.75 318.986 264.843 319.084 264.887C321.727 266.068 324.439 267.129 327.126 268.215C329.788 269.29 332.456 270.352 335.135 271.382C336.673 271.973 338.212 272.538 339.773 273.055C339.922 273.104 339.964 272.972 339.825 272.908Z" fill="black"/>
<path d="M292.033 335.056L315.535 377.027C315.535 377.027 318.827 378.017 322.664 375.743C331.386 370.575 345.793 358.104 351.188 346.854C355.074 338.751 351.968 332.294 345.988 329.774C344.475 329.136 324.768 322.869 317.703 323.517C310.23 324.202 300.933 327.697 295.819 330.888C293.303 332.457 292.033 335.056 292.033 335.056Z" fill="#5C5BBA"/>
<path d="M289.499 335.353C289.413 334.736 292.836 332.941 293.332 333.119C293.827 333.297 317.997 376.9 318.051 377.217C318.105 377.533 313.898 379.58 313.597 379.198C313.295 378.815 289.614 336.177 289.499 335.353Z" fill="#5C5BBA"/>
<path opacity="0.1" d="M289.499 335.353C289.413 334.736 292.836 332.941 293.332 333.119C293.827 333.297 317.997 376.9 318.051 377.217C318.105 377.533 313.898 379.58 313.597 379.198C313.295 378.815 289.614 336.177 289.499 335.353Z" fill="black"/>
<path d="M317.303 344.156L313.18 323.129L331.765 322.921L335.888 343.947L317.303 344.156Z" fill="#5C5BBA"/>
<path opacity="0.2" d="M317.303 344.156L313.18 323.129L331.765 322.921L335.888 343.947L317.303 344.156Z" fill="black"/>
<path opacity="0.1" d="M317.302 344.156L316.78 341.493L335.365 341.284L335.887 343.947L317.302 344.156Z" fill="black"/>
<path opacity="0.1" d="M328.133 326.575C327.47 326.583 326.839 326.107 326.722 325.512C326.606 324.918 327.048 324.43 327.71 324.422C328.373 324.415 329.004 324.891 329.121 325.485C329.238 326.08 328.796 326.568 328.133 326.575Z" fill="black"/>
<path opacity="0.1" d="M324.199 326.62C323.536 326.627 322.905 326.151 322.788 325.557C322.671 324.962 323.114 324.475 323.776 324.467C324.438 324.459 325.07 324.935 325.187 325.53C325.304 326.124 324.862 326.612 324.199 326.62Z" fill="black"/>
<path opacity="0.1" d="M320.268 326.664C319.606 326.671 318.974 326.196 318.857 325.601C318.74 325.006 319.183 324.519 319.845 324.511C320.508 324.504 321.139 324.98 321.256 325.574C321.373 326.168 320.93 326.656 320.268 326.664Z" fill="black"/>
<path opacity="0.1" d="M328.79 329.925C328.127 329.933 327.496 329.457 327.379 328.862C327.262 328.268 327.705 327.78 328.367 327.772C329.03 327.765 329.661 328.24 329.778 328.835C329.895 329.429 329.452 329.917 328.79 329.925Z" fill="black"/>
<path opacity="0.1" d="M324.856 329.969C324.194 329.976 323.562 329.501 323.446 328.906C323.329 328.311 323.772 327.823 324.434 327.816C325.097 327.809 325.728 328.285 325.845 328.879C325.961 329.473 325.519 329.961 324.856 329.969Z" fill="black"/>
<path opacity="0.1" d="M320.924 330.013C320.262 330.021 319.63 329.545 319.514 328.95C319.397 328.355 319.84 327.868 320.502 327.86C321.164 327.853 321.796 328.329 321.912 328.923C322.029 329.518 321.587 330.006 320.924 330.013Z" fill="black"/>
<path opacity="0.1" d="M329.447 333.274C328.785 333.281 328.153 332.805 328.036 332.211C327.919 331.617 328.362 331.129 329.024 331.121C329.687 331.114 330.318 331.59 330.435 332.184C330.552 332.779 330.109 333.267 329.447 333.274Z" fill="black"/>
<path opacity="0.1" d="M325.514 333.318C324.852 333.325 324.22 332.85 324.104 332.255C323.987 331.661 324.43 331.173 325.092 331.165C325.754 331.158 326.386 331.634 326.502 332.228C326.619 332.823 326.176 333.311 325.514 333.318Z" fill="black"/>
<path opacity="0.1" d="M321.581 333.362C320.919 333.37 320.287 332.893 320.17 332.299C320.053 331.704 320.496 331.216 321.158 331.209C321.82 331.201 322.452 331.677 322.569 332.272C322.686 332.867 322.243 333.355 321.581 333.362Z" fill="black"/>
<path d="M338.05 334.025C339.245 336.936 346.109 338.483 350.4 337.962C350.694 337.925 352.689 336.005 355.224 333.787C356.768 332.447 358.518 330.991 360.211 329.778C360.56 329.531 350.024 321.007 350.024 321.007C350.024 321.007 347.223 324.594 344.258 326.69C344.008 326.863 343.761 327.002 343.511 327.115C343.476 327.134 343.431 327.153 343.385 327.182C341.911 327.913 336.897 331.211 338.05 334.025Z" fill="#F7A9A0"/>
<path d="M359.699 329.157C356.484 330.715 348.293 333.889 344.105 328.315C343.813 327.927 343.573 327.551 343.385 327.186C343.431 327.149 343.474 327.136 343.511 327.116C343.761 326.999 344.007 326.865 344.257 326.695C347.226 324.594 350.025 321.005 350.025 321.005C350.025 321.005 357.627 327.154 359.699 329.157Z" fill="#263238"/>
<path d="M372.316 324.25C368.806 327.586 355.745 331.384 351.603 329.772C345.598 327.435 341.731 320.627 345.222 314.773C348.605 309.098 365.715 304.45 369.785 306.528C375.781 309.589 377.501 319.322 372.316 324.25Z" fill="#F7A9A0"/>
<path d="M358.412 316.321C358.448 316.316 358.395 316.404 358.358 316.416C357.466 316.704 356.494 317.185 356.487 318.088C356.487 318.116 356.442 318.128 356.435 318.097C356.223 317.074 357.521 316.451 358.412 316.321Z" fill="#263238"/>
<path d="M359.615 316.778C360.231 318.157 357.426 319.288 356.856 318.01C356.294 316.752 359.099 315.621 359.615 316.778Z" fill="#263238"/>
<path d="M356.566 311.545C356.596 311.525 356.498 311.493 356.462 311.509C355.603 311.884 354.556 312.169 353.953 311.497C353.935 311.476 353.892 311.496 353.907 311.524C354.427 312.43 355.813 312.038 356.566 311.545Z" fill="#263238"/>
<path d="M357.165 310.405C356.713 308.964 353.863 309.975 354.282 311.31C354.694 312.624 357.544 311.613 357.165 310.405Z" fill="#263238"/>
<path d="M361.445 317.363C361.41 316.94 361.448 316.544 361.456 316.121C361.465 315.645 361.424 315.264 361.709 314.857C361.862 314.639 362.248 314.575 362.475 314.704C363.002 315.003 363.135 315.589 363.147 316.163C363.16 316.786 363.011 317.269 362.629 317.759C362.257 318.235 361.491 317.921 361.445 317.363Z" fill="#263238"/>
<path d="M358.012 308.751C358.232 309.114 358.496 309.413 358.75 309.749C359.038 310.129 359.227 310.461 359.697 310.623C359.949 310.71 360.299 310.534 360.407 310.297C360.658 309.746 360.421 309.193 360.093 308.722C359.738 308.211 359.333 307.907 358.735 307.735C358.157 307.568 357.722 308.272 358.012 308.751Z" fill="#263238"/>
<path d="M351.606 319.413C351.607 318.136 350.904 316.773 350.437 315.919C350.412 315.813 350.574 315.643 350.662 315.589L350.668 315.587C350.7 315.575 352.53 314.915 352.53 314.915C352.313 314.721 351.27 313.706 351.624 313.589C354.557 312.628 357.818 311.559 360.94 311.221C361.042 311.205 361.078 311.358 360.98 311.387C358.198 312.422 355.252 312.962 352.441 313.958C352.746 314.293 353.277 314.825 353.407 315.175C353.417 315.28 351.399 315.785 351.115 315.934C351.115 315.934 352.336 317.483 351.99 319.278C351.901 319.742 351.606 320.022 351.606 319.413Z" fill="#263238"/>
<path d="M349.573 318.394C349.55 317.827 351.233 316.278 351.69 317.077C352.147 317.876 352.376 320.051 351.391 321.263C350.528 322.325 350.371 319.514 350.046 319.176C349.775 318.894 349.59 318.802 349.573 318.394Z" fill="#263238"/>
<path d="M350.044 319.175C349.981 319.111 349.928 319.066 349.886 319.015C350.517 318.736 351.463 318.915 351.957 320.073C351.851 320.511 351.675 320.928 351.397 321.265C350.53 322.32 350.369 319.513 350.044 319.175Z" fill="#FF9ABB"/>
<path d="M350.379 322.892C350.096 322.764 349.737 322.665 349.589 322.362C349.447 322.071 349.445 321.665 349.445 321.348C349.445 321.317 349.405 321.3 349.386 321.328C349.142 321.682 349.118 322.235 349.344 322.608C349.565 322.973 349.978 323.035 350.373 322.991C350.428 322.984 350.421 322.911 350.379 322.892Z" fill="#263238"/>
<path d="M362.246 328.487C360.702 325.498 363.684 322.305 366.952 321.753C366.952 321.753 362.334 314.026 368.744 310.798C368.744 310.798 364.699 310.051 363 306.376L360.675 306.871C360.556 305.926 362.56 304.001 365.32 305.251C365.32 305.251 368.661 303.98 371.671 305.549C374.681 307.118 374.422 310.079 374.422 310.079C374.422 310.079 376.855 311.31 377.769 314.496C378.683 317.682 376.465 320.111 376.465 320.111C376.465 320.111 377.438 324.506 374.852 326.439C372.266 328.373 369.69 327.715 369.69 327.715C369.69 327.715 368.996 329.222 366.312 329.765C364.587 330.115 362.709 329.384 362.246 328.487Z" fill="#263238"/>
<path d="M369.406 310.728C368.846 310.905 368.298 311.116 367.791 311.402C367.272 311.662 366.798 311.998 366.365 312.369C365.513 313.128 364.925 314.159 364.821 315.284C364.635 316.413 365.016 317.544 365.364 318.632C365.609 319.156 365.818 319.702 366.094 320.216C366.378 320.726 366.674 321.231 366.951 321.753C366.598 321.284 366.265 320.798 365.919 320.317C365.604 319.818 365.356 319.276 365.07 318.754C364.648 317.653 364.247 316.471 364.411 315.237C364.555 314.019 365.211 312.875 366.161 312.128C367.112 311.383 368.246 310.917 369.406 310.728Z" fill="#263238"/>
<path d="M376.466 320.11C376.901 321.143 377.126 322.272 377.112 323.413C377.103 324.551 376.743 325.728 375.968 326.622C375.564 327.052 375.097 327.4 374.594 327.674C374.098 327.964 373.548 328.171 372.982 328.276C371.853 328.497 370.645 328.309 369.691 327.714C370.719 328.151 371.868 328.234 372.914 327.965C373.947 327.695 374.955 327.132 375.659 326.347C376.017 325.954 376.285 325.487 376.475 324.985C376.646 324.476 376.756 323.943 376.795 323.398C376.874 322.308 376.738 321.193 376.466 320.11Z" fill="#263238"/>
<path d="M374.422 310.078C374.363 309.175 374.181 308.287 373.85 307.469C373.518 306.654 373.016 305.915 372.34 305.377C371.665 304.838 370.83 304.525 369.962 304.377C369.09 304.238 368.185 304.246 367.288 304.37C368.151 304.078 369.08 303.984 370.003 304.062C370.926 304.141 371.849 304.467 372.598 305.055C373.335 305.652 373.871 306.476 374.147 307.361C374.432 308.243 374.533 309.175 374.422 310.078Z" fill="#263238"/>
<path d="M363.784 308.141C364.509 308.91 365.296 309.581 366.194 310.05C366.636 310.298 367.117 310.457 367.608 310.578C368.103 310.712 368.617 310.709 369.15 310.73C368.645 310.879 368.098 310.966 367.557 310.891C367.016 310.838 366.482 310.673 366.002 310.415C365.523 310.156 365.081 309.832 364.71 309.442C364.337 309.055 364.007 308.626 363.784 308.141Z" fill="#263238"/>
<path d="M360.8 326.213C360.8 326.213 366.007 327.088 365.875 329.324C365.743 331.561 359.102 332.198 357.338 330.485C355.574 328.772 357.128 327.107 357.128 327.107L360.8 326.213Z" fill="#F7A9A0"/>
<path d="M363.967 329.46C363.986 329.492 363.942 329.521 363.917 329.497C362.632 328.319 360.913 328.193 359.254 328.322C360.001 328.499 360.577 328.95 360.405 329.919C360.396 329.97 360.319 329.962 360.308 329.916C360.152 329.257 359.843 328.875 359.172 328.699C358.697 328.574 358.175 328.583 357.687 328.564C357.524 328.558 357.481 328.289 357.656 328.267C357.669 328.266 357.683 328.264 357.696 328.263C359.538 327.342 362.83 327.551 363.967 329.46Z" fill="#263238"/>
<g opacity="0.2">
<path d="M355.992 321.352C355.902 321.4 355.867 321.512 355.915 321.602C355.963 321.692 356.075 321.727 356.165 321.679C356.255 321.631 356.29 321.519 356.242 321.429C356.195 321.338 356.082 321.304 355.992 321.352Z" fill="black"/>
<path d="M354.342 317.835C354.252 317.883 354.217 317.995 354.265 318.085C354.313 318.175 354.425 318.21 354.515 318.162C354.605 318.114 354.64 318.002 354.592 317.912C354.544 317.822 354.432 317.788 354.342 317.835Z" fill="black"/>
<path d="M353.775 319.68C353.685 319.728 353.65 319.84 353.698 319.93C353.746 320.02 353.858 320.055 353.948 320.007C354.038 319.959 354.073 319.847 354.025 319.757C353.977 319.667 353.865 319.632 353.775 319.68Z" fill="black"/>
<path d="M357.298 320.545C357.208 320.593 357.173 320.705 357.221 320.795C357.269 320.885 357.381 320.919 357.471 320.871C357.561 320.823 357.596 320.711 357.548 320.621C357.501 320.531 357.389 320.497 357.298 320.545Z" fill="black"/>
<path d="M355.519 319.412C355.429 319.46 355.394 319.572 355.442 319.662C355.49 319.753 355.602 319.787 355.692 319.739C355.783 319.691 355.817 319.579 355.769 319.489C355.722 319.399 355.61 319.365 355.519 319.412Z" fill="black"/>
<path d="M353.436 309.72C353.346 309.768 353.311 309.88 353.359 309.97C353.407 310.06 353.519 310.095 353.609 310.047C353.699 309.999 353.734 309.887 353.686 309.797C353.638 309.707 353.526 309.672 353.436 309.72Z" fill="black"/>
<path d="M353.18 311.491C353.09 311.539 353.055 311.651 353.103 311.741C353.151 311.831 353.263 311.866 353.353 311.818C353.443 311.77 353.478 311.658 353.43 311.568C353.383 311.478 353.271 311.443 353.18 311.491Z" fill="black"/>
<path d="M351.928 311.734C351.838 311.782 351.803 311.894 351.851 311.984C351.899 312.074 352.011 312.109 352.101 312.061C352.191 312.013 352.226 311.901 352.178 311.811C352.13 311.721 352.018 311.687 351.928 311.734Z" fill="black"/>
<path d="M352.09 310.223C352 310.271 351.965 310.383 352.013 310.473C352.061 310.563 352.173 310.598 352.263 310.55C352.353 310.502 352.388 310.39 352.34 310.3C352.293 310.209 352.181 310.175 352.09 310.223Z" fill="black"/>
</g>
<path d="M350.309 339.053C350.309 339.053 355.227 335.825 355.07 335.148C354.913 334.47 348.805 333.894 346.72 331.881C344.635 329.868 343.862 326.916 343.62 326.541C343.378 326.166 339.204 329.437 338.374 330.346C337.397 331.416 336.701 332.903 337.872 334.621C340.04 337.798 347.682 339.819 350.309 339.053Z" fill="#5C5BBA"/>
<path d="M353.489 335.342C352.118 336.096 350.889 337.101 349.882 338.298C351.254 337.547 352.481 336.539 353.489 335.342Z" fill="#263238"/>
<path d="M343.439 327.337C342.024 328.004 340.734 328.93 339.655 330.063C341.071 329.398 342.358 328.468 343.439 327.337Z" fill="#263238"/>
<path d="M343.357 329.117C341.524 330.085 339.826 331.306 338.328 332.74C340.163 331.773 341.858 330.549 343.357 329.117Z" fill="#263238"/>
<path d="M344.414 331.027C342.581 331.995 340.883 333.216 339.385 334.65C341.22 333.683 342.915 332.459 344.414 331.027Z" fill="#263238"/>
<path d="M346.38 332.718C344.547 333.686 342.849 334.907 341.351 336.341C343.186 335.374 344.881 334.15 346.38 332.718Z" fill="#263238"/>
<path d="M348.446 333.926C346.696 334.834 345.08 335.996 343.665 337.37C345.417 336.464 347.031 335.298 348.446 333.926Z" fill="#263238"/>
<path d="M350.911 334.796C349.374 335.636 347.977 336.727 346.794 338.019C348.332 337.18 349.726 336.086 350.911 334.796Z" fill="#263238"/>
<path d="M349.698 343.733C348.657 344.137 347.481 344.283 346.184 344.067C342.366 343.424 337.89 339.414 336.524 334.206C335.655 330.88 336.161 328.42 337.401 326.784C338.764 334.049 343.683 340.488 349.698 343.733Z" fill="#161C2D"/>
<path d="M384.265 329.958C388.148 318.006 383.315 301.223 364.865 299.296C352.11 297.963 340.697 306.24 337.437 315.992C332.832 329.791 343.615 344.534 355.502 346.358C364.528 347.747 380.17 342.591 384.265 329.958ZM354.304 338.226C345.653 336.442 337.454 324.402 340.412 313.52C342.49 305.839 350.504 299.563 359.77 300.981C373.159 303.027 378.021 316.235 375.544 325.652C372.932 335.613 360.858 339.583 354.304 338.226Z" fill="#5C5BBA"/>
<path opacity="0.1" d="M354.304 338.227C345.653 336.443 337.454 324.402 340.412 313.52C342.49 305.839 350.504 299.563 359.77 300.981C373.159 303.027 378.021 316.236 375.544 325.653C372.932 335.614 360.858 339.584 354.304 338.227Z" fill="#161C2D"/>
<path opacity="0.1" d="M354.304 338.227C345.653 336.443 337.454 324.402 340.412 313.52C342.49 305.839 350.504 299.563 359.77 300.981C373.159 303.027 378.021 316.236 375.544 325.653C372.932 335.614 360.858 339.584 354.304 338.227Z" fill="#161C2D"/>
<g opacity="0.2">
<path d="M374.376 312.131C365.971 308.558 356.856 305.79 347.172 303.999C349.127 302.602 351.397 301.588 353.857 301.111C359.543 302.444 365.012 304.117 370.244 306.079C372.035 307.837 373.405 309.909 374.376 312.131Z" fill="white"/>
<path d="M361.535 337.933C358.889 338.557 356.334 338.647 354.304 338.226C351.741 337.698 349.221 336.27 347.019 334.241C352.056 335.154 356.904 336.395 361.535 337.933Z" fill="white"/>
<path d="M375.603 315.846C366.063 311.595 355.531 308.408 344.25 306.588C344.443 306.373 344.645 306.162 344.85 305.958C355.816 307.788 366.069 310.89 375.392 315.006C375.471 315.286 375.542 315.568 375.603 315.846Z" fill="white"/>
<path d="M369.251 334.473C360.878 331.002 351.678 328.471 341.86 327.126C341.741 326.887 341.633 326.636 341.525 326.384C351.705 327.757 361.228 330.397 369.859 334.027C369.658 334.181 369.454 334.327 369.251 334.473Z" fill="white"/>
<path d="M364.838 336.885C364.527 337.008 364.224 337.129 363.904 337.231C358.041 335.142 351.815 333.517 345.279 332.431C345.056 332.176 344.839 331.919 344.634 331.649C351.753 332.782 358.515 334.562 364.838 336.885Z" fill="white"/>
<path d="M373.725 329.822C363.606 325.204 352.217 321.915 339.922 320.383C339.824 319.539 339.785 318.697 339.807 317.846C352.56 319.441 364.365 322.892 374.822 327.744C374.506 328.474 374.143 329.166 373.725 329.822Z" fill="white"/>
</g>
<path d="M366.175 348.903C369.273 348.922 374.697 346.796 376.199 343.012C377.618 339.435 376.077 334.84 369.735 335.06C365.351 335.212 361.363 338.053 360.171 340.977C358.484 345.115 362.093 348.878 366.175 348.903Z" fill="#5C5BBA"/>
<path opacity="0.1" d="M366.175 348.903C369.273 348.922 374.697 346.796 376.199 343.012C377.618 339.435 376.077 334.84 369.735 335.06C365.351 335.212 361.363 338.053 360.171 340.977C358.484 345.115 362.093 348.878 366.175 348.903Z" fill="black"/>
<path d="M367.479 349.346C369.859 349.361 374.026 347.728 375.18 344.82C376.271 342.072 375.087 338.542 370.214 338.711C366.846 338.828 363.782 341.01 362.866 343.257C361.57 346.436 364.343 349.327 367.479 349.346Z" fill="#5C5BBA"/>
<path d="M340.949 354.358C323.1 354.059 298.524 343.565 292.735 339.708C283.921 333.837 287.368 300.282 287.633 293.507C287.746 290.618 313.551 295.582 313.494 298.673C313.445 301.366 309.903 327.163 310.886 327.747C311.704 328.233 329.582 337.745 341.478 344.708C351.729 350.708 345.672 354.438 340.949 354.358Z" fill="#F7A9A0"/>
<path d="M312.876 304.712C312.876 304.712 313.368 300.304 313.393 300.014C313.477 299.024 313.758 297.96 314.668 295.634C316.823 290.13 318.555 275.345 306.357 264.066C301.683 259.744 296.611 261.136 300.668 266.488C303.526 270.257 305.831 272.624 306.419 274.115C306.419 274.115 299.402 272.325 296.203 275.039C294.773 276.252 290.948 279.655 288.348 282.728C288.348 282.728 288.865 283.474 289.655 284.327C289.655 284.327 285.739 287.877 287.633 293.506L287.176 301.018L312.876 304.712Z" fill="#A6A6A6"/>
<path d="M315.886 290.053C314.84 287.137 312.519 280.993 308.872 276.628C304.822 271.779 295.712 263.531 292.164 266.558C289.562 268.777 292.763 272.232 292.763 272.232C292.763 272.232 288.279 269.616 286.367 272.135C284.625 274.431 287.261 276.955 287.261 276.955C287.261 276.955 284.268 275.836 283.016 278.37C281.51 281.418 288.029 283.263 289.171 287.669C289.429 288.659 315.886 290.053 315.886 290.053Z" fill="#A6A6A6"/>
<path d="M304.462 281.763C303.028 279.182 298.268 274.155 292.891 272.208C292.769 272.164 292.67 272.232 292.773 272.296C298.238 275.697 302.651 279.904 304.416 281.801C304.44 281.826 304.478 281.792 304.462 281.763Z" fill="#263238"/>
<path d="M299.45 285.709C297.984 283.609 292.846 278.647 287.33 276.861C287.207 276.821 287.112 276.896 287.218 276.956C293.074 280.274 297.532 283.961 299.407 285.75C299.431 285.774 299.469 285.736 299.45 285.709Z" fill="#263238"/>
<path d="M312.875 304.713L287.175 301.02C287.175 301.02 284.582 302.923 284.32 309.727C284.058 316.531 286.605 335.894 291.348 339.717C296.091 343.54 319.089 352.674 335.368 354.605C351.647 356.536 348.834 347.758 341.353 344.057C333.872 340.356 311.855 327.583 311.583 327.145C311.311 326.707 313.867 315.034 314.074 310.914C314.281 306.794 312.875 304.713 312.875 304.713Z" fill="#5C5BBA"/>
<path d="M315.212 329.4C316.508 330.333 317.844 331.193 319.187 332.043C320.525 332.9 321.893 333.705 323.261 334.509C324.638 335.298 326.016 336.086 327.425 336.824L329.539 337.928C330.258 338.272 330.964 338.639 331.695 338.964C331.053 338.492 330.385 338.062 329.731 337.609L327.724 336.322C326.385 335.466 325.016 334.66 323.646 333.855C322.267 333.066 320.888 332.277 319.479 331.54C318.075 330.794 316.664 330.061 315.212 329.4Z" fill="#263238"/>
<path d="M327.628 336.563C328.155 336.812 328.697 336.961 329.241 337.1C329.789 337.228 330.331 337.329 330.907 337.403C330.676 337.219 330.411 337.099 330.146 336.99C329.881 336.877 329.606 336.801 329.33 336.731C328.775 336.605 328.211 336.522 327.628 336.563Z" fill="#263238"/>
<path d="M293.848 341.326C295.131 342.11 296.466 342.801 297.796 343.503C299.141 344.173 300.498 344.821 301.866 345.445C304.604 346.69 307.408 347.785 310.234 348.814C313.078 349.794 315.943 350.719 318.859 351.462C321.765 352.239 324.718 352.828 327.685 353.293C326.238 352.88 324.772 352.569 323.336 352.136C321.889 351.746 320.445 351.35 319.017 350.899L314.729 349.568C313.313 349.084 311.889 348.624 310.488 348.098C307.655 347.134 304.87 346.034 302.095 344.909C299.321 343.783 296.571 342.592 293.848 341.326Z" fill="#263238"/>
<path d="M322.496 352.133C322.923 352.569 323.408 352.907 323.907 353.222C324.414 353.525 324.935 353.805 325.518 353.989C325.094 353.554 324.607 353.215 324.107 352.899C323.599 352.596 323.077 352.316 322.496 352.133Z" fill="#263238"/>
<path opacity="0.1" d="M310.712 308.72C307.876 308.13 305.001 307.689 302.131 307.265C299.291 306.845 296.451 306.436 293.608 306.039C291.981 305.812 290.348 305.585 288.717 305.414C288.609 305.403 288.6 305.5 288.705 305.521C291.545 306.084 294.425 306.514 297.286 306.973C300.121 307.428 302.958 307.869 305.8 308.276C307.432 308.51 309.057 308.717 310.694 308.874C310.85 308.889 310.862 308.751 310.712 308.72Z" fill="black"/>
</g>
<defs>
<clipPath id="clip0_230_3145">
<rect width="500" height="500" fill="white"/>
</clipPath>
</defs>
</svg>
