<svg width="140" height="35" viewBox="0 0 140 35" fill="none" xmlns="http://www.w3.org/2000/svg">
<path d="M41.5471 27.2914C39.7014 27.2914 38.1179 26.9903 36.7968 26.388C35.4951 25.7857 34.4751 24.9017 33.7368 23.736C33.0179 22.5703 32.6196 21.1229 32.5419 19.3937C32.5225 18.5971 32.5128 17.7423 32.5128 16.8291C32.5128 15.916 32.5225 15.0417 32.5419 14.2063C32.6196 12.516 33.0276 11.088 33.7659 9.92229C34.5042 8.73714 35.5339 7.84343 36.8551 7.24114C38.1762 6.61943 39.7402 6.30857 41.5471 6.30857C42.8294 6.30857 44.0145 6.47371 45.1025 6.804C46.1905 7.11486 47.1425 7.58114 47.9585 8.20286C48.7745 8.80514 49.4059 9.54343 49.8528 10.4177C50.3191 11.2726 50.5619 12.244 50.5814 13.332C50.6008 13.5069 50.5425 13.6526 50.4065 13.7691C50.2899 13.8857 50.1442 13.944 49.9694 13.944H46.0351C45.7825 13.944 45.5882 13.8954 45.4522 13.7983C45.3162 13.6817 45.1996 13.4777 45.1025 13.1863C44.8305 12.1566 44.3836 11.4571 43.7619 11.088C43.1596 10.6994 42.4116 10.5051 41.5179 10.5051C40.4494 10.5051 39.6042 10.8063 38.9825 11.4086C38.3608 11.9914 38.0208 12.9726 37.9625 14.352C37.9042 15.9451 37.9042 17.5771 37.9625 19.248C38.0208 20.6274 38.3608 21.6183 38.9825 22.2206C39.6042 22.8034 40.4494 23.0949 41.5179 23.0949C42.4116 23.0949 43.1694 22.9006 43.7911 22.512C44.4128 22.1234 44.8499 21.424 45.1025 20.4137C45.1802 20.1223 45.2871 19.928 45.4231 19.8309C45.5785 19.7143 45.7825 19.656 46.0351 19.656H49.9694C50.1442 19.656 50.2899 19.7143 50.4065 19.8309C50.5425 19.9474 50.6008 20.0931 50.5814 20.268C50.5619 21.356 50.3191 22.3371 49.8528 23.2114C49.4059 24.0663 48.7745 24.8046 47.9585 25.4263C47.1425 26.0286 46.1905 26.4949 45.1025 26.8251C44.0145 27.136 42.8294 27.2914 41.5471 27.2914ZM60.3323 27.2914C58.7003 27.2914 57.3209 27.0291 56.1941 26.5046C55.0866 25.98 54.2318 25.232 53.6295 24.2606C53.0466 23.2697 52.7163 22.0943 52.6386 20.7343C52.6192 20.3457 52.6095 19.9086 52.6095 19.4229C52.6095 18.9177 52.6192 18.4806 52.6386 18.1114C52.7163 16.732 53.0661 15.5566 53.6878 14.5851C54.3095 13.6137 55.1741 12.8657 56.2815 12.3411C57.4083 11.8166 58.7586 11.5543 60.3323 11.5543C61.9255 11.5543 63.2758 11.8166 64.3832 12.3411C65.5101 12.8657 66.3843 13.6137 67.0061 14.5851C67.6278 15.5566 67.9775 16.732 68.0552 18.1114C68.0746 18.4806 68.0843 18.9177 68.0843 19.4229C68.0843 19.9086 68.0746 20.3457 68.0552 20.7343C67.9775 22.0943 67.6375 23.2697 67.0352 24.2606C66.4523 25.232 65.5975 25.98 64.4706 26.5046C63.3632 27.0291 61.9838 27.2914 60.3323 27.2914ZM60.3323 23.736C61.2066 23.736 61.8381 23.4737 62.2266 22.9491C62.6346 22.4246 62.8678 21.6377 62.9261 20.5886C62.9455 20.2971 62.9552 19.9086 62.9552 19.4229C62.9552 18.9371 62.9455 18.5486 62.9261 18.2571C62.8678 17.2274 62.6346 16.4503 62.2266 15.9257C61.8381 15.3817 61.2066 15.1097 60.3323 15.1097C59.4775 15.1097 58.8461 15.3817 58.4381 15.9257C58.0301 16.4503 57.8066 17.2274 57.7678 18.2571C57.7483 18.5486 57.7386 18.9371 57.7386 19.4229C57.7386 19.9086 57.7483 20.2971 57.7678 20.5886C57.8066 21.6377 58.0301 22.4246 58.4381 22.9491C58.8461 23.4737 59.4775 23.736 60.3323 23.736ZM71.5173 27C71.3035 27 71.1287 26.932 70.9927 26.796C70.8567 26.66 70.7887 26.4851 70.7887 26.2714V7.03714C70.7887 6.82343 70.8567 6.64857 70.9927 6.51257C71.1287 6.37657 71.3035 6.30857 71.5173 6.30857H74.9561C75.1698 6.30857 75.3447 6.37657 75.4807 6.51257C75.6167 6.64857 75.6847 6.82343 75.6847 7.03714V26.2714C75.6847 26.4851 75.6167 26.66 75.4807 26.796C75.3447 26.932 75.1698 27 74.9561 27H71.5173ZM79.6941 27C79.4804 27 79.3055 26.932 79.1695 26.796C79.0335 26.66 78.9655 26.4851 78.9655 26.2714V7.03714C78.9655 6.82343 79.0335 6.64857 79.1695 6.51257C79.3055 6.37657 79.4804 6.30857 79.6941 6.30857H83.1329C83.3467 6.30857 83.5215 6.37657 83.6575 6.51257C83.7935 6.64857 83.8615 6.82343 83.8615 7.03714V26.2714C83.8615 26.4851 83.7935 26.66 83.6575 26.796C83.5215 26.932 83.3467 27 83.1329 27H79.6941ZM91.6886 27.2914C90.6395 27.2914 89.6972 27.0971 88.8618 26.7086C88.0458 26.3006 87.3949 25.7566 86.9092 25.0766C86.4235 24.3966 86.1806 23.6291 86.1806 22.7743C86.1806 21.3949 86.744 20.3069 87.8709 19.5103C88.9978 18.6943 90.4938 18.1406 92.3589 17.8491L96.0018 17.2954V16.8874C96.0018 16.188 95.856 15.6537 95.5646 15.2846C95.2732 14.9154 94.7389 14.7309 93.9618 14.7309C93.4178 14.7309 92.9709 14.8377 92.6212 15.0514C92.2909 15.2651 92.0286 15.5566 91.8343 15.9257C91.6595 16.1783 91.4166 16.3046 91.1058 16.3046H87.8418C87.628 16.3046 87.4629 16.2463 87.3463 16.1297C87.2298 15.9937 87.1812 15.8383 87.2006 15.6634C87.2006 15.3137 87.3269 14.9154 87.5795 14.4686C87.8515 14.0023 88.2595 13.5457 88.8035 13.0989C89.3475 12.652 90.0469 12.2829 90.9018 11.9914C91.7566 11.7 92.7863 11.5543 93.9909 11.5543C95.2538 11.5543 96.332 11.7 97.2258 11.9914C98.1195 12.2829 98.8383 12.6909 99.3823 13.2154C99.9458 13.74 100.363 14.3617 100.635 15.0806C100.907 15.78 101.043 16.5571 101.043 17.412V26.2714C101.043 26.4851 100.966 26.66 100.81 26.796C100.674 26.932 100.509 27 100.315 27H96.9343C96.7206 27 96.5458 26.932 96.4098 26.796C96.2738 26.66 96.2058 26.4851 96.2058 26.2714V25.2514C95.9532 25.6206 95.6132 25.9606 95.1858 26.2714C94.7583 26.5823 94.2532 26.8251 93.6703 27C93.1069 27.1943 92.4463 27.2914 91.6886 27.2914ZM93.0583 23.9691C93.6218 23.9691 94.1269 23.8526 94.5738 23.6194C95.04 23.3669 95.3995 22.988 95.652 22.4829C95.924 21.9583 96.06 21.3074 96.06 20.5303V20.1223L93.5829 20.5594C92.6698 20.7149 91.9995 20.9577 91.572 21.288C91.164 21.5989 90.96 21.968 90.96 22.3954C90.96 22.7257 91.0572 23.0074 91.2515 23.2406C91.4458 23.4737 91.6983 23.6583 92.0092 23.7943C92.32 23.9109 92.6698 23.9691 93.0583 23.9691ZM113.438 27.2914C112.35 27.2914 111.436 27.1069 110.698 26.7377C109.979 26.3686 109.387 25.9023 108.92 25.3389V26.2714C108.92 26.4851 108.843 26.66 108.687 26.796C108.551 26.932 108.386 27 108.192 27H104.899C104.685 27 104.51 26.932 104.374 26.796C104.238 26.66 104.17 26.4851 104.17 26.2714V7.03714C104.17 6.82343 104.238 6.64857 104.374 6.51257C104.51 6.37657 104.685 6.30857 104.899 6.30857H108.454C108.668 6.30857 108.843 6.37657 108.979 6.51257C109.115 6.64857 109.183 6.82343 109.183 7.03714V13.2737C109.649 12.7686 110.232 12.3606 110.931 12.0497C111.65 11.7194 112.486 11.5543 113.438 11.5543C114.409 11.5543 115.264 11.7194 116.002 12.0497C116.76 12.3606 117.401 12.8171 117.926 13.4194C118.45 14.0217 118.858 14.7406 119.15 15.576C119.441 16.4114 119.606 17.3537 119.645 18.4029C119.664 18.772 119.674 19.112 119.674 19.4229C119.674 19.7143 119.664 20.0543 119.645 20.4429C119.606 21.5309 119.431 22.5023 119.12 23.3571C118.829 24.1926 118.421 24.9114 117.896 25.5137C117.372 26.0966 116.74 26.5434 116.002 26.8543C115.264 27.1457 114.409 27.2914 113.438 27.2914ZM111.864 23.3863C112.524 23.3863 113.039 23.2503 113.408 22.9783C113.778 22.7063 114.04 22.3371 114.195 21.8709C114.37 21.4046 114.477 20.8897 114.516 20.3263C114.555 19.724 114.555 19.1217 114.516 18.5194C114.477 17.956 114.37 17.4411 114.195 16.9749C114.04 16.5086 113.778 16.1394 113.408 15.8674C113.039 15.5954 112.524 15.4594 111.864 15.4594C111.262 15.4594 110.766 15.5954 110.378 15.8674C109.989 16.12 109.698 16.46 109.503 16.8874C109.309 17.2954 109.202 17.7423 109.183 18.228C109.163 18.5971 109.154 18.9566 109.154 19.3063C109.154 19.656 109.163 20.0251 109.183 20.4137C109.202 20.9383 109.299 21.424 109.474 21.8709C109.649 22.3177 109.931 22.6869 110.319 22.9783C110.708 23.2503 111.223 23.3863 111.864 23.3863ZM129.562 27.2914C127.93 27.2914 126.551 27.0291 125.424 26.5046C124.317 25.98 123.462 25.232 122.86 24.2606C122.277 23.2697 121.946 22.0943 121.869 20.7343C121.849 20.3457 121.84 19.9086 121.84 19.4229C121.84 18.9177 121.849 18.4806 121.869 18.1114C121.946 16.732 122.296 15.5566 122.918 14.5851C123.54 13.6137 124.404 12.8657 125.512 12.3411C126.638 11.8166 127.989 11.5543 129.562 11.5543C131.156 11.5543 132.506 11.8166 133.613 12.3411C134.74 12.8657 135.614 13.6137 136.236 14.5851C136.858 15.5566 137.208 16.732 137.285 18.1114C137.305 18.4806 137.314 18.9177 137.314 19.4229C137.314 19.9086 137.305 20.3457 137.285 20.7343C137.208 22.0943 136.868 23.2697 136.265 24.2606C135.682 25.232 134.828 25.98 133.701 26.5046C132.593 27.0291 131.214 27.2914 129.562 27.2914ZM129.562 23.736C130.437 23.736 131.068 23.4737 131.457 22.9491C131.865 22.4246 132.098 21.6377 132.156 20.5886C132.176 20.2971 132.185 19.9086 132.185 19.4229C132.185 18.9371 132.176 18.5486 132.156 18.2571C132.098 17.2274 131.865 16.4503 131.457 15.9257C131.068 15.3817 130.437 15.1097 129.562 15.1097C128.708 15.1097 128.076 15.3817 127.668 15.9257C127.26 16.4503 127.037 17.2274 126.998 18.2571C126.978 18.5486 126.969 18.9371 126.969 19.4229C126.969 19.9086 126.978 20.2971 126.998 20.5886C127.037 21.6377 127.26 22.4246 127.668 22.9491C128.076 23.4737 128.708 23.736 129.562 23.736Z" fill="#F4F7FA"/>
<g clip-path="url(#clip0_225_2420)">
<path d="M0.785645 0V28.0462H6.95582V12.3403H17.2768V28.0462H24.7932V7.62858L0.785645 0Z" fill="#5C5BBA"/>
<path d="M6.95557 12.3398V28.0457L14.0232 33.655V16.3785L6.95557 12.3398Z" fill="#3F3D98"/>
</g>
<defs>
<clipPath id="clip0_225_2420">
<rect width="24.0076" height="33.6555" fill="white" transform="translate(0.785645)"/>
</clipPath>
</defs>
</svg>
