<svg width="114" height="28" viewBox="0 0 114 28" fill="none" xmlns="http://www.w3.org/2000/svg">
<path d="M33.568 22.24C32.048 22.24 30.744 21.992 29.656 21.496C28.584 21 27.744 20.272 27.136 19.312C26.544 18.352 26.216 17.16 26.152 15.736C26.136 15.08 26.128 14.376 26.128 13.624C26.128 12.872 26.136 12.152 26.152 11.464C26.216 10.072 26.552 8.896 27.16 7.936C27.768 6.96 28.616 6.224 29.704 5.728C30.792 5.216 32.08 4.96 33.568 4.96C34.624 4.96 35.6 5.096 36.496 5.368C37.392 5.624 38.176 6.008 38.848 6.52C39.52 7.016 40.04 7.624 40.408 8.344C40.792 9.048 40.992 9.848 41.008 10.744C41.024 10.888 40.976 11.008 40.864 11.104C40.768 11.2 40.648 11.248 40.504 11.248H37.264C37.056 11.248 36.896 11.208 36.784 11.128C36.672 11.032 36.576 10.864 36.496 10.624C36.272 9.776 35.904 9.2 35.392 8.896C34.896 8.576 34.28 8.416 33.544 8.416C32.664 8.416 31.968 8.664 31.456 9.16C30.944 9.64 30.664 10.448 30.616 11.584C30.568 12.896 30.568 14.24 30.616 15.616C30.664 16.752 30.944 17.568 31.456 18.064C31.968 18.544 32.664 18.784 33.544 18.784C34.28 18.784 34.904 18.624 35.416 18.304C35.928 17.984 36.288 17.408 36.496 16.576C36.56 16.336 36.648 16.176 36.76 16.096C36.888 16 37.056 15.952 37.264 15.952H40.504C40.648 15.952 40.768 16 40.864 16.096C40.976 16.192 41.024 16.312 41.008 16.456C40.992 17.352 40.792 18.16 40.408 18.88C40.04 19.584 39.52 20.192 38.848 20.704C38.176 21.2 37.392 21.584 36.496 21.856C35.6 22.112 34.624 22.24 33.568 22.24ZM49.0382 22.24C47.6942 22.24 46.5582 22.024 45.6302 21.592C44.7182 21.16 44.0142 20.544 43.5182 19.744C43.0382 18.928 42.7662 17.96 42.7022 16.84C42.6862 16.52 42.6782 16.16 42.6782 15.76C42.6782 15.344 42.6862 14.984 42.7022 14.68C42.7662 13.544 43.0542 12.576 43.5662 11.776C44.0782 10.976 44.7902 10.36 45.7022 9.928C46.6302 9.496 47.7422 9.28 49.0382 9.28C50.3502 9.28 51.4622 9.496 52.3742 9.928C53.3022 10.36 54.0222 10.976 54.5342 11.776C55.0462 12.576 55.3342 13.544 55.3982 14.68C55.4142 14.984 55.4222 15.344 55.4222 15.76C55.4222 16.16 55.4142 16.52 55.3982 16.84C55.3342 17.96 55.0542 18.928 54.5582 19.744C54.0782 20.544 53.3742 21.16 52.4462 21.592C51.5342 22.024 50.3982 22.24 49.0382 22.24ZM49.0382 19.312C49.7582 19.312 50.2782 19.096 50.5982 18.664C50.9342 18.232 51.1262 17.584 51.1742 16.72C51.1902 16.48 51.1982 16.16 51.1982 15.76C51.1982 15.36 51.1902 15.04 51.1742 14.8C51.1262 13.952 50.9342 13.312 50.5982 12.88C50.2782 12.432 49.7582 12.208 49.0382 12.208C48.3342 12.208 47.8142 12.432 47.4782 12.88C47.1422 13.312 46.9582 13.952 46.9262 14.8C46.9102 15.04 46.9022 15.36 46.9022 15.76C46.9022 16.16 46.9102 16.48 46.9262 16.72C46.9582 17.584 47.1422 18.232 47.4782 18.664C47.8142 19.096 48.3342 19.312 49.0382 19.312ZM58.2493 22C58.0733 22 57.9293 21.944 57.8173 21.832C57.7053 21.72 57.6493 21.576 57.6493 21.4V5.56C57.6493 5.384 57.7053 5.24 57.8173 5.128C57.9293 5.016 58.0733 4.96 58.2493 4.96H61.0813C61.2573 4.96 61.4013 5.016 61.5133 5.128C61.6253 5.24 61.6813 5.384 61.6813 5.56V21.4C61.6813 21.576 61.6253 21.72 61.5133 21.832C61.4013 21.944 61.2573 22 61.0813 22H58.2493ZM64.9832 22C64.8072 22 64.6632 21.944 64.5512 21.832C64.4392 21.72 64.3832 21.576 64.3832 21.4V5.56C64.3832 5.384 64.4392 5.24 64.5512 5.128C64.6632 5.016 64.8072 4.96 64.9832 4.96H67.8152C67.9912 4.96 68.1352 5.016 68.2472 5.128C68.3592 5.24 68.4152 5.384 68.4152 5.56V21.4C68.4152 21.576 68.3592 21.72 68.2472 21.832C68.1352 21.944 67.9912 22 67.8152 22H64.9832ZM74.861 22.24C73.997 22.24 73.221 22.08 72.533 21.76C71.861 21.424 71.325 20.976 70.925 20.416C70.525 19.856 70.325 19.224 70.325 18.52C70.325 17.384 70.789 16.488 71.717 15.832C72.645 15.16 73.877 14.704 75.413 14.464L78.413 14.008V13.672C78.413 13.096 78.293 12.656 78.053 12.352C77.813 12.048 77.373 11.896 76.733 11.896C76.285 11.896 75.917 11.984 75.629 12.16C75.357 12.336 75.141 12.576 74.981 12.88C74.837 13.088 74.637 13.192 74.381 13.192H71.693C71.517 13.192 71.381 13.144 71.285 13.048C71.189 12.936 71.149 12.808 71.165 12.664C71.165 12.376 71.269 12.048 71.477 11.68C71.701 11.296 72.037 10.92 72.485 10.552C72.933 10.184 73.509 9.88 74.213 9.64C74.917 9.4 75.765 9.28 76.757 9.28C77.797 9.28 78.685 9.4 79.421 9.64C80.157 9.88 80.749 10.216 81.197 10.648C81.661 11.08 82.005 11.592 82.229 12.184C82.453 12.76 82.565 13.4 82.565 14.104V21.4C82.565 21.576 82.501 21.72 82.373 21.832C82.261 21.944 82.125 22 81.965 22H79.181C79.005 22 78.861 21.944 78.749 21.832C78.637 21.72 78.581 21.576 78.581 21.4V20.56C78.373 20.864 78.093 21.144 77.741 21.4C77.389 21.656 76.973 21.856 76.493 22C76.029 22.16 75.485 22.24 74.861 22.24ZM75.989 19.504C76.453 19.504 76.869 19.408 77.237 19.216C77.621 19.008 77.917 18.696 78.125 18.28C78.349 17.848 78.461 17.312 78.461 16.672V16.336L76.421 16.696C75.669 16.824 75.117 17.024 74.765 17.296C74.429 17.552 74.261 17.856 74.261 18.208C74.261 18.48 74.341 18.712 74.501 18.904C74.661 19.096 74.869 19.248 75.125 19.36C75.381 19.456 75.669 19.504 75.989 19.504ZM92.772 22.24C91.876 22.24 91.124 22.088 90.516 21.784C89.924 21.48 89.436 21.096 89.052 20.632V21.4C89.052 21.576 88.988 21.72 88.86 21.832C88.748 21.944 88.612 22 88.452 22H85.74C85.564 22 85.42 21.944 85.308 21.832C85.196 21.72 85.14 21.576 85.14 21.4V5.56C85.14 5.384 85.196 5.24 85.308 5.128C85.42 5.016 85.564 4.96 85.74 4.96H88.668C88.844 4.96 88.988 5.016 89.1 5.128C89.212 5.24 89.268 5.384 89.268 5.56V10.696C89.652 10.28 90.132 9.944 90.708 9.688C91.3 9.416 91.988 9.28 92.772 9.28C93.572 9.28 94.276 9.416 94.884 9.688C95.508 9.944 96.036 10.32 96.468 10.816C96.9 11.312 97.236 11.904 97.476 12.592C97.716 13.28 97.852 14.056 97.884 14.92C97.9 15.224 97.908 15.504 97.908 15.76C97.908 16 97.9 16.28 97.884 16.6C97.852 17.496 97.708 18.296 97.452 19C97.212 19.688 96.876 20.28 96.444 20.776C96.012 21.256 95.492 21.624 94.884 21.88C94.276 22.12 93.572 22.24 92.772 22.24ZM91.476 19.024C92.02 19.024 92.444 18.912 92.748 18.688C93.052 18.464 93.268 18.16 93.396 17.776C93.54 17.392 93.628 16.968 93.66 16.504C93.692 16.008 93.692 15.512 93.66 15.016C93.628 14.552 93.54 14.128 93.396 13.744C93.268 13.36 93.052 13.056 92.748 12.832C92.444 12.608 92.02 12.496 91.476 12.496C90.98 12.496 90.572 12.608 90.252 12.832C89.932 13.04 89.692 13.32 89.532 13.672C89.372 14.008 89.284 14.376 89.268 14.776C89.252 15.08 89.244 15.376 89.244 15.664C89.244 15.952 89.252 16.256 89.268 16.576C89.284 17.008 89.364 17.408 89.508 17.776C89.652 18.144 89.884 18.448 90.204 18.688C90.524 18.912 90.948 19.024 91.476 19.024ZM106.051 22.24C104.707 22.24 103.571 22.024 102.643 21.592C101.731 21.16 101.027 20.544 100.531 19.744C100.051 18.928 99.7792 17.96 99.7152 16.84C99.6992 16.52 99.6912 16.16 99.6912 15.76C99.6912 15.344 99.6992 14.984 99.7152 14.68C99.7792 13.544 100.067 12.576 100.579 11.776C101.091 10.976 101.803 10.36 102.715 9.928C103.643 9.496 104.755 9.28 106.051 9.28C107.363 9.28 108.475 9.496 109.387 9.928C110.315 10.36 111.035 10.976 111.547 11.776C112.059 12.576 112.347 13.544 112.411 14.68C112.427 14.984 112.435 15.344 112.435 15.76C112.435 16.16 112.427 16.52 112.411 16.84C112.347 17.96 112.067 18.928 111.571 19.744C111.091 20.544 110.387 21.16 109.459 21.592C108.547 22.024 107.411 22.24 106.051 22.24ZM106.051 19.312C106.771 19.312 107.291 19.096 107.611 18.664C107.947 18.232 108.139 17.584 108.187 16.72C108.203 16.48 108.211 16.16 108.211 15.76C108.211 15.36 108.203 15.04 108.187 14.8C108.139 13.952 107.947 13.312 107.611 12.88C107.291 12.432 106.771 12.208 106.051 12.208C105.347 12.208 104.827 12.432 104.491 12.88C104.155 13.312 103.971 13.952 103.939 14.8C103.923 15.04 103.915 15.36 103.915 15.76C103.915 16.16 103.923 16.48 103.939 16.72C103.971 17.584 104.155 18.232 104.491 18.664C104.827 19.096 105.347 19.312 106.051 19.312Z" fill="#161C2D"/>
<g clip-path="url(#clip0_212_2733)">
<path d="M0 0V23.0969H5.08132V10.1626H13.581V23.0969H19.771V6.28236L0 0Z" fill="#5C5BBA"/>
<path d="M5.08105 10.1621V23.0964L10.9015 27.7158V13.4881L5.08105 10.1621Z" fill="#3F3D98"/>
</g>
<defs>
<clipPath id="clip0_212_2733">
<rect width="19.771" height="27.7163" fill="white"/>
</clipPath>
</defs>
</svg>
